<svg width="603" height="255" viewBox="0 0 603 255" fill="none" xmlns="http://www.w3.org/2000/svg">
<path d="M241 138.306V120.18C241 119.626 241.52 119.176 242.16 119.176C379.362 119.081 510.989 102.154 551.411 87.0822C552.184 86.7935 553 87.3025 553 88.033V168.963C553 169.698 552.176 170.21 551.398 169.915C513.422 155.485 378.542 139.401 242.159 139.31C241.52 139.309 241 138.861 241 138.306Z" fill="url(#paint0_linear_1_2)"/>
<path d="M251.665 22.4876H249.766C249.562 22.4876 249.391 22.4336 249.253 22.3256C249.115 22.2176 248.986 22.0586 248.866 21.8486L245.797 17.3215C245.719 17.2015 245.641 17.1026 245.563 17.0245C245.485 16.9405 245.398 16.8745 245.302 16.8266C245.206 16.7725 245.098 16.7366 244.978 16.7186C244.858 16.6946 244.723 16.6825 244.573 16.6825H243.079V22.4876H240.973V9.52756H243.079V15.0715H244.348C244.612 15.0715 244.834 15.0295 245.014 14.9455C245.194 14.8615 245.371 14.6996 245.545 14.4596L248.65 10.1035C248.752 9.93556 248.875 9.79756 249.019 9.68956C249.169 9.58156 249.346 9.52756 249.55 9.52756H251.332L247.624 14.7835C247.474 15.0055 247.303 15.1886 247.111 15.3326C246.919 15.4766 246.706 15.5905 246.472 15.6745C246.808 15.7645 247.093 15.9116 247.327 16.1156C247.567 16.3196 247.792 16.6016 248.002 16.9616L251.665 22.4876Z" fill="black"/>
<path d="M257.682 18.4736C256.992 18.4976 256.41 18.5546 255.936 18.6446C255.462 18.7286 255.078 18.8396 254.784 18.9776C254.49 19.1096 254.277 19.2685 254.145 19.4545C254.019 19.6405 253.956 19.8445 253.956 20.0665C253.956 20.2825 253.989 20.4685 254.055 20.6245C254.127 20.7745 254.223 20.9006 254.343 21.0026C254.469 21.0986 254.613 21.1706 254.775 21.2186C254.943 21.2606 255.126 21.2816 255.324 21.2816C255.828 21.2816 256.26 21.1886 256.62 21.0026C256.986 20.8106 257.34 20.5346 257.682 20.1746V18.4736ZM252.552 14.5855C253.59 13.6195 254.826 13.1366 256.26 13.1366C256.788 13.1366 257.256 13.2235 257.664 13.3976C258.078 13.5655 258.423 13.8055 258.699 14.1175C258.981 14.4295 259.194 14.8015 259.338 15.2335C259.488 15.6595 259.563 16.1336 259.563 16.6556V22.4876H258.699C258.513 22.4876 258.372 22.4606 258.276 22.4066C258.18 22.3466 258.099 22.2296 258.033 22.0556L257.844 21.3085C257.61 21.5185 257.379 21.7076 257.151 21.8756C256.923 22.0376 256.686 22.1756 256.44 22.2896C256.2 22.4036 255.939 22.4876 255.657 22.5416C255.381 22.6016 255.075 22.6315 254.739 22.6315C254.367 22.6315 254.019 22.5805 253.695 22.4785C253.377 22.3765 253.101 22.2236 252.867 22.0196C252.633 21.8096 252.447 21.5516 252.309 21.2456C252.177 20.9396 252.111 20.5796 252.111 20.1656C252.111 19.8116 252.204 19.4666 252.39 19.1306C252.582 18.7946 252.894 18.4946 253.326 18.2306C253.764 17.9606 254.337 17.7386 255.045 17.5646C255.759 17.3906 256.638 17.2916 257.682 17.2675V16.6556C257.682 15.9956 257.541 15.5035 257.259 15.1795C256.977 14.8555 256.563 14.6935 256.017 14.6935C255.645 14.6935 255.333 14.7415 255.081 14.8375C254.829 14.9275 254.61 15.0265 254.424 15.1345C254.238 15.2425 254.073 15.3445 253.929 15.4405C253.785 15.5305 253.632 15.5756 253.47 15.5756C253.338 15.5756 253.224 15.5425 253.128 15.4765C253.038 15.4045 252.963 15.3176 252.903 15.2155L252.552 14.5855Z" fill="black"/>
<path d="M272.27 13.2806V22.4876H270.533V16.9345C270.533 16.7425 270.545 16.5265 270.569 16.2866C270.593 16.0405 270.623 15.8126 270.659 15.6026L267.734 20.8586C267.674 20.9666 267.596 21.0536 267.5 21.1196C267.404 21.1796 267.296 21.2096 267.176 21.2096H266.969C266.849 21.2096 266.741 21.1796 266.645 21.1196C266.555 21.0536 266.48 20.9666 266.42 20.8586L263.441 15.5756C263.477 15.7856 263.507 16.0165 263.531 16.2685C263.561 16.5145 263.576 16.7365 263.576 16.9345V22.4876H261.83V13.2806H263.414C263.546 13.2806 263.675 13.3105 263.801 13.3705C263.933 13.4305 264.047 13.5475 264.143 13.7215L266.636 17.9876C266.72 18.1436 266.795 18.3116 266.861 18.4916C266.933 18.6716 267.002 18.8515 267.068 19.0315C267.134 18.8515 267.203 18.6716 267.275 18.4916C267.347 18.3116 267.425 18.1436 267.509 17.9876L269.966 13.7215C270.056 13.5415 270.167 13.4245 270.299 13.3705C270.431 13.3105 270.563 13.2806 270.695 13.2806H272.27Z" fill="black"/>
<path d="M280.665 16.8626C280.665 16.5386 280.617 16.2385 280.521 15.9625C280.431 15.6805 280.296 15.4375 280.116 15.2335C279.936 15.0235 279.711 14.8616 279.441 14.7476C279.177 14.6276 278.871 14.5676 278.523 14.5676C277.821 14.5676 277.269 14.7685 276.867 15.1705C276.465 15.5725 276.21 16.1365 276.102 16.8626H280.665ZM276.048 18.0506C276.072 18.5726 276.153 19.0255 276.291 19.4095C276.429 19.7875 276.612 20.1025 276.84 20.3545C277.074 20.6065 277.35 20.7956 277.668 20.9216C277.992 21.0416 278.352 21.1016 278.748 21.1016C279.126 21.1016 279.453 21.0595 279.729 20.9755C280.005 20.8855 280.245 20.7896 280.449 20.6876C280.653 20.5796 280.827 20.4835 280.971 20.3995C281.115 20.3095 281.247 20.2645 281.367 20.2645C281.523 20.2645 281.643 20.3245 281.727 20.4445L282.276 21.1556C282.048 21.4255 281.79 21.6535 281.502 21.8396C281.214 22.0256 280.908 22.1786 280.584 22.2986C280.26 22.4126 279.927 22.4936 279.585 22.5416C279.243 22.5956 278.91 22.6226 278.586 22.6226C277.95 22.6226 277.359 22.5176 276.813 22.3076C276.273 22.0916 275.802 21.7766 275.4 21.3626C275.004 20.9486 274.692 20.4356 274.464 19.8236C274.242 19.2116 274.131 18.5065 274.131 17.7085C274.131 17.0725 274.23 16.4786 274.428 15.9266C274.632 15.3746 274.92 14.8945 275.292 14.4865C275.67 14.0786 276.126 13.7575 276.66 13.5235C277.2 13.2835 277.809 13.1635 278.487 13.1635C279.051 13.1635 279.573 13.2566 280.053 13.4426C280.533 13.6226 280.947 13.8896 281.295 14.2435C281.643 14.5975 281.913 15.0325 282.105 15.5486C282.303 16.0586 282.402 16.6406 282.402 17.2946C282.402 17.5946 282.369 17.7956 282.303 17.8976C282.237 17.9996 282.117 18.0506 281.943 18.0506H276.048Z" fill="black"/>
<path d="M286.142 20.1835C286.412 20.5315 286.706 20.7776 287.024 20.9216C287.348 21.0596 287.705 21.1286 288.095 21.1286C288.851 21.1286 289.439 20.8526 289.859 20.3006C290.285 19.7486 290.498 18.9266 290.498 17.8346C290.498 17.2706 290.45 16.7906 290.354 16.3945C290.258 15.9926 290.12 15.6655 289.94 15.4135C289.76 15.1615 289.541 14.9786 289.283 14.8646C289.025 14.7506 288.734 14.6935 288.41 14.6935C287.918 14.6935 287.492 14.8015 287.132 15.0175C286.778 15.2276 286.448 15.5306 286.142 15.9266V20.1835ZM286.043 14.6395C286.427 14.1895 286.862 13.8266 287.348 13.5505C287.84 13.2745 288.41 13.1366 289.058 13.1366C289.574 13.1366 290.042 13.2416 290.462 13.4516C290.882 13.6556 291.242 13.9555 291.542 14.3515C291.842 14.7475 292.073 15.2396 292.235 15.8276C292.403 16.4096 292.487 17.0786 292.487 17.8346C292.487 18.5126 292.394 19.1455 292.208 19.7335C292.028 20.3155 291.767 20.8226 291.425 21.2546C291.083 21.6806 290.669 22.0166 290.183 22.2626C289.697 22.5026 289.148 22.6226 288.536 22.6226C287.996 22.6226 287.537 22.5356 287.159 22.3616C286.787 22.1876 286.448 21.9476 286.142 21.6416V25.5386H284.207V13.3075H285.377C285.641 13.3075 285.809 13.4305 285.881 13.6766L286.043 14.6395Z" fill="black"/>
<path d="M299.272 18.4736C298.582 18.4976 298 18.5546 297.526 18.6446C297.052 18.7286 296.668 18.8396 296.374 18.9776C296.08 19.1096 295.867 19.2685 295.735 19.4545C295.609 19.6405 295.546 19.8445 295.546 20.0665C295.546 20.2825 295.579 20.4685 295.645 20.6245C295.717 20.7745 295.813 20.9006 295.933 21.0026C296.059 21.0986 296.203 21.1706 296.365 21.2186C296.533 21.2606 296.716 21.2816 296.914 21.2816C297.418 21.2816 297.85 21.1886 298.21 21.0026C298.576 20.8106 298.93 20.5346 299.272 20.1746V18.4736ZM294.142 14.5855C295.18 13.6195 296.416 13.1366 297.85 13.1366C298.378 13.1366 298.846 13.2235 299.254 13.3976C299.668 13.5655 300.013 13.8055 300.289 14.1175C300.571 14.4295 300.784 14.8015 300.928 15.2335C301.078 15.6595 301.153 16.1336 301.153 16.6556V22.4876H300.289C300.103 22.4876 299.962 22.4606 299.866 22.4066C299.77 22.3466 299.689 22.2296 299.623 22.0556L299.434 21.3085C299.2 21.5185 298.969 21.7076 298.741 21.8756C298.513 22.0376 298.276 22.1756 298.03 22.2896C297.79 22.4036 297.529 22.4876 297.247 22.5416C296.971 22.6016 296.665 22.6315 296.329 22.6315C295.957 22.6315 295.609 22.5805 295.285 22.4785C294.967 22.3765 294.691 22.2236 294.457 22.0196C294.223 21.8096 294.037 21.5516 293.899 21.2456C293.767 20.9396 293.701 20.5796 293.701 20.1656C293.701 19.8116 293.794 19.4666 293.98 19.1306C294.172 18.7946 294.484 18.4946 294.916 18.2306C295.354 17.9606 295.927 17.7386 296.635 17.5646C297.349 17.3906 298.228 17.2916 299.272 17.2675V16.6556C299.272 15.9956 299.131 15.5035 298.849 15.1795C298.567 14.8555 298.153 14.6935 297.607 14.6935C297.235 14.6935 296.923 14.7415 296.671 14.8375C296.419 14.9275 296.2 15.0265 296.014 15.1345C295.828 15.2425 295.663 15.3445 295.519 15.4405C295.375 15.5305 295.222 15.5756 295.06 15.5756C294.928 15.5756 294.814 15.5425 294.718 15.4765C294.628 15.4045 294.553 15.3176 294.493 15.2155L294.142 14.5855Z" fill="black"/>
<path d="M311.871 13.1635C312.549 13.1635 313.161 13.2745 313.707 13.4965C314.259 13.7185 314.727 14.0335 315.111 14.4415C315.501 14.8495 315.801 15.3446 316.011 15.9266C316.221 16.5086 316.326 17.1625 316.326 17.8885C316.326 18.6145 316.221 19.2685 316.011 19.8505C315.801 20.4325 315.501 20.9306 315.111 21.3446C314.727 21.7526 314.259 22.0676 313.707 22.2896C313.161 22.5116 312.549 22.6226 311.871 22.6226C311.187 22.6226 310.569 22.5116 310.017 22.2896C309.471 22.0676 309.003 21.7526 308.613 21.3446C308.223 20.9306 307.923 20.4325 307.713 19.8505C307.503 19.2685 307.398 18.6145 307.398 17.8885C307.398 17.1625 307.503 16.5086 307.713 15.9266C307.923 15.3446 308.223 14.8495 308.613 14.4415C309.003 14.0335 309.471 13.7185 310.017 13.4965C310.569 13.2745 311.187 13.1635 311.871 13.1635ZM311.871 21.1105C312.699 21.1105 313.314 20.8346 313.716 20.2826C314.124 19.7246 314.328 18.9296 314.328 17.8976C314.328 16.8656 314.124 16.0705 313.716 15.5125C313.314 14.9485 312.699 14.6666 311.871 14.6666C311.031 14.6666 310.407 14.9485 309.999 15.5125C309.591 16.0705 309.387 16.8656 309.387 17.8976C309.387 18.9296 309.591 19.7246 309.999 20.2826C310.407 20.8346 311.031 21.1105 311.871 21.1105Z" fill="black"/>
<path d="M325.648 22.4876H323.794C323.644 22.4876 323.524 22.4486 323.434 22.3706C323.35 22.2926 323.281 22.2056 323.227 22.1096L321.112 18.7166C321.058 18.9206 320.986 19.0976 320.896 19.2476L318.979 22.1096C318.913 22.2056 318.838 22.2926 318.754 22.3706C318.676 22.4486 318.571 22.4876 318.439 22.4876H316.711L319.888 17.7535L316.837 13.3075H318.691C318.841 13.3075 318.949 13.3315 319.015 13.3795C319.087 13.4216 319.15 13.4875 319.204 13.5775L321.283 16.8176C321.337 16.6196 321.421 16.4305 321.535 16.2505L323.29 13.6135C323.41 13.4095 323.563 13.3075 323.749 13.3075H325.522L322.471 17.6726L325.648 22.4876Z" fill="black"/>
<path d="M335.255 22.4876H333.32V14.8106H330.764C330.692 15.9566 330.581 16.9465 330.431 17.7806C330.287 18.6085 330.113 19.3106 329.909 19.8866C329.705 20.4626 329.477 20.9306 329.225 21.2906C328.973 21.6446 328.706 21.9206 328.424 22.1186C328.142 22.3166 327.851 22.4486 327.551 22.5146C327.257 22.5806 326.96 22.6136 326.66 22.6136C326.078 22.6136 325.787 22.5176 325.787 22.3256V21.1105H326.291C326.489 21.1105 326.69 21.0776 326.894 21.0116C327.104 20.9456 327.305 20.8165 327.497 20.6245C327.689 20.4265 327.872 20.1506 328.046 19.7966C328.226 19.4426 328.388 18.9776 328.532 18.4016C328.682 17.8196 328.811 17.1146 328.919 16.2866C329.027 15.4525 329.111 14.4595 329.171 13.3075H335.255V22.4876Z" fill="black"/>
<path d="M342.514 18.4736C341.824 18.4976 341.242 18.5546 340.768 18.6446C340.294 18.7286 339.91 18.8396 339.616 18.9776C339.322 19.1096 339.109 19.2685 338.977 19.4545C338.851 19.6405 338.788 19.8445 338.788 20.0665C338.788 20.2825 338.821 20.4685 338.887 20.6245C338.959 20.7745 339.055 20.9006 339.175 21.0026C339.301 21.0986 339.445 21.1706 339.607 21.2186C339.775 21.2606 339.958 21.2816 340.156 21.2816C340.66 21.2816 341.092 21.1886 341.452 21.0026C341.818 20.8106 342.172 20.5346 342.514 20.1746V18.4736ZM337.384 14.5855C338.422 13.6195 339.658 13.1366 341.092 13.1366C341.62 13.1366 342.088 13.2235 342.496 13.3976C342.91 13.5655 343.255 13.8055 343.531 14.1175C343.813 14.4295 344.026 14.8015 344.17 15.2335C344.32 15.6595 344.395 16.1336 344.395 16.6556V22.4876H343.531C343.345 22.4876 343.204 22.4606 343.108 22.4066C343.012 22.3466 342.931 22.2296 342.865 22.0556L342.676 21.3085C342.442 21.5185 342.211 21.7076 341.983 21.8756C341.755 22.0376 341.518 22.1756 341.272 22.2896C341.032 22.4036 340.771 22.4876 340.489 22.5416C340.213 22.6016 339.907 22.6315 339.571 22.6315C339.199 22.6315 338.851 22.5805 338.527 22.4785C338.209 22.3765 337.933 22.2236 337.699 22.0196C337.465 21.8096 337.279 21.5516 337.141 21.2456C337.009 20.9396 336.943 20.5796 336.943 20.1656C336.943 19.8116 337.036 19.4666 337.222 19.1306C337.414 18.7946 337.726 18.4946 338.158 18.2306C338.596 17.9606 339.169 17.7386 339.877 17.5646C340.591 17.3906 341.47 17.2916 342.514 17.2675V16.6556C342.514 15.9956 342.373 15.5035 342.091 15.1795C341.809 14.8555 341.395 14.6935 340.849 14.6935C340.477 14.6935 340.165 14.7415 339.913 14.8375C339.661 14.9275 339.442 15.0265 339.256 15.1345C339.07 15.2425 338.905 15.3445 338.761 15.4405C338.617 15.5305 338.464 15.5756 338.302 15.5756C338.17 15.5756 338.056 15.5425 337.96 15.4765C337.87 15.4045 337.795 15.3176 337.735 15.2155L337.384 14.5855Z" fill="black"/>
<path d="M359.757 22.4876H358.425C358.083 22.4876 357.819 22.4336 357.633 22.3256C357.453 22.2176 357.312 22.0466 357.21 21.8126L355.653 19.1306C355.527 18.9026 355.362 18.7346 355.158 18.6266C354.954 18.5186 354.723 18.4646 354.465 18.4646H353.646V22.4966H351.774V18.4646H350.964C350.7 18.4646 350.466 18.5186 350.262 18.6266C350.064 18.7346 349.899 18.9026 349.767 19.1306L348.21 21.8126C348.108 22.0466 347.964 22.2176 347.778 22.3256C347.598 22.4336 347.337 22.4876 346.995 22.4876H345.663L347.931 18.6985C348.087 18.4285 348.261 18.2095 348.453 18.0415C348.651 17.8675 348.897 17.7386 349.191 17.6546C348.969 17.5706 348.777 17.4566 348.615 17.3126C348.459 17.1686 348.309 16.9826 348.165 16.7546L345.906 13.3075H347.427C347.607 13.3075 347.772 13.3555 347.922 13.4516C348.072 13.5476 348.189 13.6735 348.273 13.8295L350.019 16.5835C350.139 16.7815 350.283 16.9286 350.451 17.0245C350.619 17.1206 350.829 17.1686 351.081 17.1686H351.774V13.2986H353.646V17.1686H354.312C354.81 17.1686 355.173 16.9735 355.401 16.5835L357.147 13.8295C357.231 13.6735 357.348 13.5476 357.498 13.4516C357.654 13.3555 357.822 13.3075 358.002 13.3075H359.514L357.255 16.7546C357.111 16.9826 356.961 17.1686 356.805 17.3126C356.649 17.4566 356.46 17.5706 356.238 17.6546C356.532 17.7386 356.775 17.8675 356.967 18.0415C357.159 18.2095 357.333 18.4285 357.489 18.6985L359.757 22.4876Z" fill="black"/>
<path d="M367.348 21.0926V14.8106H364.774C364.72 15.6506 364.642 16.4036 364.54 17.0696C364.444 17.7356 364.33 18.3266 364.198 18.8426C364.072 19.3526 363.931 19.7936 363.775 20.1656C363.619 20.5316 363.457 20.8406 363.289 21.0926H367.348ZM370.903 21.0296V25.0166C370.903 25.1966 370.849 25.3376 370.741 25.4396C370.639 25.5476 370.507 25.6016 370.345 25.6016H369.148V22.4876H361.885V25.0526C361.885 25.1906 361.84 25.3166 361.75 25.4306C361.666 25.5446 361.534 25.6016 361.354 25.6016H360.13V21.0926H360.409C360.619 21.0926 360.826 21.0626 361.03 21.0026C361.234 20.9366 361.429 20.8076 361.615 20.6156C361.801 20.4236 361.978 20.1535 362.146 19.8055C362.314 19.4515 362.464 18.9866 362.596 18.4106C362.734 17.8346 362.854 17.1295 362.956 16.2955C363.058 15.4615 363.139 14.4655 363.199 13.3075H369.22V21.0296H370.903Z" fill="black"/>
<path d="M378.277 16.8626C378.277 16.5386 378.229 16.2385 378.133 15.9625C378.043 15.6805 377.908 15.4375 377.728 15.2335C377.548 15.0235 377.323 14.8616 377.053 14.7476C376.789 14.6276 376.483 14.5676 376.135 14.5676C375.433 14.5676 374.881 14.7685 374.479 15.1705C374.077 15.5725 373.822 16.1365 373.714 16.8626H378.277ZM373.66 18.0506C373.684 18.5726 373.765 19.0255 373.903 19.4095C374.041 19.7875 374.224 20.1025 374.452 20.3545C374.686 20.6065 374.962 20.7956 375.28 20.9216C375.604 21.0416 375.964 21.1016 376.36 21.1016C376.738 21.1016 377.065 21.0595 377.341 20.9755C377.617 20.8855 377.857 20.7896 378.061 20.6876C378.265 20.5796 378.439 20.4835 378.583 20.3995C378.727 20.3095 378.859 20.2645 378.979 20.2645C379.135 20.2645 379.255 20.3245 379.339 20.4445L379.888 21.1556C379.66 21.4255 379.402 21.6535 379.114 21.8396C378.826 22.0256 378.52 22.1786 378.196 22.2986C377.872 22.4126 377.539 22.4936 377.197 22.5416C376.855 22.5956 376.522 22.6226 376.198 22.6226C375.562 22.6226 374.971 22.5176 374.425 22.3076C373.885 22.0916 373.414 21.7766 373.012 21.3626C372.616 20.9486 372.304 20.4356 372.076 19.8236C371.854 19.2116 371.743 18.5065 371.743 17.7085C371.743 17.0725 371.842 16.4786 372.04 15.9266C372.244 15.3746 372.532 14.8945 372.904 14.4865C373.282 14.0786 373.738 13.7575 374.272 13.5235C374.812 13.2835 375.421 13.1635 376.099 13.1635C376.663 13.1635 377.185 13.2566 377.665 13.4426C378.145 13.6226 378.559 13.8896 378.907 14.2435C379.255 14.5975 379.525 15.0325 379.717 15.5486C379.915 16.0586 380.014 16.6406 380.014 17.2946C380.014 17.5946 379.981 17.7956 379.915 17.8976C379.849 17.9996 379.729 18.0506 379.555 18.0506H373.66Z" fill="black"/>
<path d="M389.648 13.3075V22.4876H387.722V18.3206H383.753V22.4876H381.818V13.3075H383.753V16.8626H387.722V13.3075H389.648Z" fill="black"/>
<path d="M400.087 13.3075V22.4876H398.152V16.7365C398.152 16.6106 398.158 16.4725 398.17 16.3225C398.182 16.1725 398.2 16.0195 398.224 15.8635C398.164 15.9955 398.104 16.1186 398.044 16.2326C397.99 16.3406 397.93 16.4396 397.864 16.5296L393.877 22.0106C393.805 22.1246 393.709 22.2356 393.589 22.3436C393.469 22.4456 393.334 22.4966 393.184 22.4966H392.014V13.3075H393.949V19.0585C393.949 19.1845 393.94 19.3256 393.922 19.4816C393.91 19.6376 393.892 19.7936 393.868 19.9496C393.988 19.6736 394.111 19.4456 394.237 19.2656L398.224 13.7936C398.296 13.6735 398.392 13.5625 398.512 13.4605C398.632 13.3585 398.767 13.3075 398.917 13.3075H400.087Z" fill="black"/>
<path d="M407.243 17.5016V14.5855H405.884C405.572 14.5855 405.311 14.6306 405.101 14.7206C404.891 14.8105 404.723 14.9275 404.597 15.0715C404.471 15.2095 404.381 15.3656 404.327 15.5396C404.273 15.7136 404.246 15.8845 404.246 16.0525C404.246 16.5025 404.405 16.8565 404.723 17.1146C405.047 17.3726 405.482 17.5016 406.028 17.5016H407.243ZM409.088 13.3075V22.4876H407.243V18.7255H406.712C406.538 18.7255 406.394 18.7405 406.28 18.7705C406.166 18.8005 406.067 18.8425 405.983 18.8965C405.905 18.9505 405.833 19.0166 405.767 19.0946C405.707 19.1726 405.647 19.2596 405.587 19.3556L403.868 21.8126C403.742 22.0406 403.592 22.2116 403.418 22.3256C403.25 22.4336 402.995 22.4876 402.653 22.4876H401.321L403.796 19.1486C404.024 18.7526 404.342 18.4826 404.75 18.3386C404.306 18.2726 403.928 18.1585 403.616 17.9965C403.304 17.8345 403.052 17.6455 402.86 17.4295C402.668 17.2135 402.527 16.9796 402.437 16.7276C402.353 16.4696 402.311 16.2145 402.311 15.9625C402.311 15.6325 402.374 15.3085 402.5 14.9905C402.632 14.6725 402.839 14.3905 403.121 14.1445C403.403 13.8925 403.766 13.6916 404.21 13.5416C404.66 13.3855 405.2 13.3075 405.83 13.3075H409.088Z" fill="black"/>
<path d="M469.069 225.243V238.203H466.963V229.599C466.963 229.311 466.969 229.011 466.981 228.699C466.999 228.387 467.032 228.051 467.08 227.691C466.966 228.003 466.843 228.294 466.711 228.564C466.585 228.828 466.459 229.062 466.333 229.266L460.843 237.546C460.795 237.624 460.738 237.702 460.672 237.78C460.612 237.858 460.54 237.93 460.456 237.996C460.378 238.056 460.294 238.107 460.204 238.149C460.114 238.185 460.018 238.203 459.916 238.203H458.341V225.243H460.456V233.838C460.456 234.126 460.447 234.429 460.429 234.747C460.417 235.059 460.387 235.389 460.339 235.737C460.453 235.431 460.573 235.146 460.699 234.882C460.831 234.612 460.957 234.378 461.077 234.18L466.567 225.9C466.615 225.822 466.669 225.744 466.729 225.666C466.795 225.588 466.867 225.519 466.945 225.459C467.029 225.393 467.116 225.342 467.206 225.306C467.296 225.264 467.392 225.243 467.494 225.243H469.069Z" fill="black"/>
<path d="M471.011 229.995C471.359 229.665 471.785 229.398 472.289 229.194C472.793 228.984 473.396 228.879 474.098 228.879C474.662 228.879 475.16 228.948 475.592 229.086C476.024 229.218 476.387 229.398 476.681 229.626C476.975 229.848 477.197 230.106 477.347 230.4C477.503 230.694 477.581 231 477.581 231.318C477.581 231.498 477.554 231.684 477.5 231.876C477.446 232.062 477.356 232.245 477.23 232.425C477.11 232.605 476.948 232.773 476.744 232.929C476.546 233.085 476.3 233.214 476.006 233.316C476.552 233.496 476.984 233.775 477.302 234.153C477.62 234.525 477.779 234.99 477.779 235.548C477.779 235.986 477.677 236.379 477.473 236.727C477.275 237.069 477.008 237.36 476.672 237.6C476.342 237.84 475.958 238.023 475.52 238.149C475.088 238.275 474.638 238.338 474.17 238.338C473.888 238.338 473.594 238.311 473.288 238.257C472.988 238.209 472.688 238.128 472.388 238.014C472.094 237.894 471.809 237.741 471.533 237.555C471.257 237.369 471.008 237.141 470.786 236.871L471.344 236.16C471.416 236.04 471.536 235.98 471.704 235.98C471.824 235.98 471.947 236.025 472.073 236.115C472.199 236.205 472.346 236.304 472.514 236.412C472.688 236.52 472.895 236.619 473.135 236.709C473.381 236.799 473.684 236.844 474.044 236.844C474.344 236.844 474.611 236.808 474.845 236.736C475.079 236.664 475.277 236.562 475.439 236.43C475.601 236.298 475.724 236.145 475.808 235.971C475.892 235.791 475.934 235.596 475.934 235.386C475.934 234.978 475.766 234.657 475.43 234.423C475.1 234.183 474.578 234.063 473.864 234.063H472.829V232.785H473.864C474.488 232.785 474.971 232.671 475.313 232.443C475.655 232.215 475.826 231.918 475.826 231.552C475.826 231.222 475.676 230.943 475.376 230.715C475.082 230.487 474.638 230.373 474.044 230.373C473.708 230.373 473.42 230.409 473.18 230.481C472.946 230.547 472.748 230.622 472.586 230.706C472.424 230.784 472.286 230.856 472.172 230.922C472.064 230.988 471.968 231.021 471.884 231.021C471.794 231.021 471.716 231.003 471.65 230.967C471.59 230.931 471.524 230.856 471.452 230.742L471.011 229.995Z" fill="black"/>
<path d="M485.821 236.808V230.526H483.247C483.193 231.366 483.115 232.119 483.013 232.785C482.917 233.451 482.803 234.042 482.671 234.558C482.545 235.068 482.404 235.509 482.248 235.881C482.092 236.247 481.93 236.556 481.762 236.808H485.821ZM489.376 236.745V240.732C489.376 240.912 489.322 241.053 489.214 241.155C489.112 241.263 488.98 241.317 488.818 241.317H487.621V238.203H480.358V240.768C480.358 240.906 480.313 241.032 480.223 241.146C480.139 241.26 480.007 241.317 479.827 241.317H478.603V236.808H478.882C479.092 236.808 479.299 236.778 479.503 236.718C479.707 236.652 479.902 236.523 480.088 236.331C480.274 236.139 480.451 235.869 480.619 235.521C480.787 235.167 480.937 234.702 481.069 234.126C481.207 233.55 481.327 232.845 481.429 232.011C481.531 231.177 481.612 230.181 481.672 229.023H487.693V236.745H489.376Z" fill="black"/>
<path d="M496.75 232.578C496.75 232.254 496.702 231.954 496.606 231.678C496.516 231.396 496.381 231.153 496.201 230.949C496.021 230.739 495.796 230.577 495.526 230.463C495.262 230.343 494.956 230.283 494.608 230.283C493.906 230.283 493.354 230.484 492.952 230.886C492.55 231.288 492.295 231.852 492.187 232.578H496.75ZM492.133 233.766C492.157 234.288 492.238 234.741 492.376 235.125C492.514 235.503 492.697 235.818 492.925 236.07C493.159 236.322 493.435 236.511 493.753 236.637C494.077 236.757 494.437 236.817 494.833 236.817C495.211 236.817 495.538 236.775 495.814 236.691C496.09 236.601 496.33 236.505 496.534 236.403C496.738 236.295 496.912 236.199 497.056 236.115C497.2 236.025 497.332 235.98 497.452 235.98C497.608 235.98 497.728 236.04 497.812 236.16L498.361 236.871C498.133 237.141 497.875 237.369 497.587 237.555C497.299 237.741 496.993 237.894 496.669 238.014C496.345 238.128 496.012 238.209 495.67 238.257C495.328 238.311 494.995 238.338 494.671 238.338C494.035 238.338 493.444 238.233 492.898 238.023C492.358 237.807 491.887 237.492 491.485 237.078C491.089 236.664 490.777 236.151 490.549 235.539C490.327 234.927 490.216 234.222 490.216 233.424C490.216 232.788 490.315 232.194 490.513 231.642C490.717 231.09 491.005 230.61 491.377 230.202C491.755 229.794 492.211 229.473 492.745 229.239C493.285 228.999 493.894 228.879 494.572 228.879C495.136 228.879 495.658 228.972 496.138 229.158C496.618 229.338 497.032 229.605 497.38 229.959C497.728 230.313 497.998 230.748 498.19 231.264C498.388 231.774 498.487 232.356 498.487 233.01C498.487 233.31 498.454 233.511 498.388 233.613C498.322 233.715 498.202 233.766 498.028 233.766H492.133Z" fill="black"/>
<path d="M508.589 238.203H506.654V230.526H504.098C504.026 231.672 503.915 232.662 503.765 233.496C503.621 234.324 503.447 235.026 503.243 235.602C503.039 236.178 502.811 236.646 502.559 237.006C502.307 237.36 502.04 237.636 501.758 237.834C501.476 238.032 501.185 238.164 500.885 238.23C500.591 238.296 500.294 238.329 499.994 238.329C499.412 238.329 499.121 238.233 499.121 238.041V236.826H499.625C499.823 236.826 500.024 236.793 500.228 236.727C500.438 236.661 500.639 236.532 500.831 236.34C501.023 236.142 501.206 235.866 501.38 235.512C501.56 235.158 501.722 234.693 501.866 234.117C502.016 233.535 502.145 232.83 502.253 232.002C502.361 231.168 502.445 230.175 502.505 229.023H508.589V238.203Z" fill="black"/>
<path d="M519.017 229.023V238.203H517.082V232.452C517.082 232.326 517.088 232.188 517.1 232.038C517.112 231.888 517.13 231.735 517.154 231.579C517.094 231.711 517.034 231.834 516.974 231.948C516.92 232.056 516.86 232.155 516.794 232.245L512.807 237.726C512.735 237.84 512.639 237.951 512.519 238.059C512.399 238.161 512.264 238.212 512.114 238.212H510.944V229.023H512.879V234.774C512.879 234.9 512.87 235.041 512.852 235.197C512.84 235.353 512.822 235.509 512.798 235.665C512.918 235.389 513.041 235.161 513.167 234.981L517.154 229.509C517.226 229.389 517.322 229.278 517.442 229.176C517.562 229.074 517.697 229.023 517.847 229.023H519.017Z" fill="black"/>
<path d="M527.388 232.578C527.388 232.254 527.34 231.954 527.244 231.678C527.154 231.396 527.019 231.153 526.839 230.949C526.659 230.739 526.434 230.577 526.164 230.463C525.9 230.343 525.594 230.283 525.246 230.283C524.544 230.283 523.992 230.484 523.59 230.886C523.188 231.288 522.933 231.852 522.825 232.578H527.388ZM522.771 233.766C522.795 234.288 522.876 234.741 523.014 235.125C523.152 235.503 523.335 235.818 523.563 236.07C523.797 236.322 524.073 236.511 524.391 236.637C524.715 236.757 525.075 236.817 525.471 236.817C525.849 236.817 526.176 236.775 526.452 236.691C526.728 236.601 526.968 236.505 527.172 236.403C527.376 236.295 527.55 236.199 527.694 236.115C527.838 236.025 527.97 235.98 528.09 235.98C528.246 235.98 528.366 236.04 528.45 236.16L528.999 236.871C528.771 237.141 528.513 237.369 528.225 237.555C527.937 237.741 527.631 237.894 527.307 238.014C526.983 238.128 526.65 238.209 526.308 238.257C525.966 238.311 525.633 238.338 525.309 238.338C524.673 238.338 524.082 238.233 523.536 238.023C522.996 237.807 522.525 237.492 522.123 237.078C521.727 236.664 521.415 236.151 521.187 235.539C520.965 234.927 520.854 234.222 520.854 233.424C520.854 232.788 520.953 232.194 521.151 231.642C521.355 231.09 521.643 230.61 522.015 230.202C522.393 229.794 522.849 229.473 523.383 229.239C523.923 228.999 524.532 228.879 525.21 228.879C525.774 228.879 526.296 228.972 526.776 229.158C527.256 229.338 527.67 229.605 528.018 229.959C528.366 230.313 528.636 230.748 528.828 231.264C529.026 231.774 529.125 232.356 529.125 233.01C529.125 233.31 529.092 233.511 529.026 233.613C528.96 233.715 528.84 233.766 528.666 233.766H522.771Z" fill="black"/>
<path d="M188.844 90.6811V80.6591C188.844 79.5545 189.739 78.6591 190.844 78.6591H246.522C246.74 78.6591 246.956 78.6946 247.162 78.7643L312.127 100.711C312.333 100.781 312.549 100.816 312.767 100.816H336.377C337.481 100.816 338.377 99.9206 338.377 98.816V63.7678C338.377 62.6633 339.272 61.7678 340.377 61.7678H346.043C347.148 61.7678 348.043 62.6633 348.043 63.7678V108.038C348.043 109.142 347.148 110.038 346.043 110.038H312.699C312.526 110.038 312.354 110.015 312.187 109.971L247.102 92.7477C246.935 92.7035 246.763 92.6811 246.591 92.6811H190.844C189.739 92.6811 188.844 91.7857 188.844 90.6811Z" fill="#E48947"/>
<path d="M188.844 167.639V177.661C188.844 178.766 189.739 179.661 190.844 179.661H246.522C246.74 179.661 246.956 179.625 247.162 179.556L312.127 157.609C312.333 157.54 312.549 157.504 312.767 157.504H336.377C337.481 157.504 338.377 158.399 338.377 159.504V194.552C338.377 195.657 339.272 196.552 340.377 196.552H346.043C347.148 196.552 348.043 195.657 348.043 194.552V150.283C348.043 149.178 347.148 148.283 346.043 148.283H312.699C312.526 148.283 312.354 148.305 312.187 148.349L247.102 165.572C246.935 165.617 246.763 165.639 246.591 165.639H190.844C189.739 165.639 188.844 166.534 188.844 167.639Z" fill="#E48947"/>
<path d="M113.997 57.5181C113.997 55.3089 115.788 53.5181 117.997 53.5181H344.043C346.252 53.5181 348.043 55.3089 348.043 57.5181V67.4644C348.043 69.6735 346.252 71.4644 344.043 71.4644H117.997C115.788 71.4644 113.997 69.6735 113.997 67.4644V57.5181Z" fill="#A9460E"/>
<path d="M113.997 190.709C113.997 188.5 115.788 186.709 117.997 186.709H344.043C346.252 186.709 348.043 188.5 348.043 190.709V201.819C348.043 204.028 346.252 205.819 344.043 205.819H117.997C115.788 205.819 113.997 204.028 113.997 201.819V190.709Z" fill="#A9460E"/>
<path d="M115.3 78.2647C115.3 76.7323 116.542 75.49 118.075 75.49H244.297C245.83 75.49 247.072 76.7323 247.072 78.2647C247.072 79.7972 245.83 81.0395 244.297 81.0395H118.075C116.542 81.0395 115.3 79.7972 115.3 78.2647Z" fill="#525252"/>
<path d="M115.3 78.2647C115.3 76.7323 116.542 75.49 118.075 75.49H244.297C245.83 75.49 247.072 76.7323 247.072 78.2647C247.072 79.7972 245.83 81.0395 244.297 81.0395H118.075C116.542 81.0395 115.3 79.7972 115.3 78.2647Z" fill="#525252"/>
<path d="M114.648 180.307C114.648 178.775 115.89 177.532 117.423 177.532H244.949C246.481 177.532 247.724 178.775 247.724 180.307C247.724 181.839 246.481 183.082 244.949 183.082H117.423C115.89 183.082 114.648 181.839 114.648 180.307Z" fill="#525252"/>
<path d="M114.648 180.307C114.648 178.775 115.89 177.532 117.423 177.532H244.949C246.481 177.532 247.724 178.775 247.724 180.307C247.724 181.839 246.481 183.082 244.949 183.082H117.423C115.89 183.082 114.648 181.839 114.648 180.307Z" fill="#525252"/>
<path d="M222.383 118.765C222.383 117.661 223.278 116.765 224.383 116.765H250.325C250.825 116.765 251.306 116.952 251.675 117.29L263.347 127.977C264.229 128.784 264.21 130.18 263.308 130.963L251.666 141.066C251.302 141.382 250.837 141.555 250.355 141.555H224.383C223.278 141.555 222.383 140.66 222.383 139.555V118.765Z" fill="#252525"/>
<path fill-rule="evenodd" clip-rule="evenodd" d="M126.085 116.94C126.085 114.731 127.876 112.94 130.085 112.94H220.383C223.697 112.94 226.383 115.626 226.383 118.94V140.228C226.383 143.542 223.697 146.228 220.383 146.228H130.085C127.876 146.228 126.085 144.437 126.085 142.228C126.085 140.019 127.876 138.228 130.085 138.228H218.383V120.94H130.085C127.876 120.94 126.085 119.149 126.085 116.94Z" fill="#252525"/>
<path d="M561.554 61.738C561.554 60.6335 562.449 59.738 563.554 59.738H574.631C575.736 59.738 576.631 60.6335 576.631 61.738V194.625C576.631 195.729 575.736 196.625 574.631 196.625H563.554C562.449 196.625 561.554 195.729 561.554 194.625V61.738Z" fill="#C5C5C5"/>
<path d="M576.631 2.52051C576.631 1.41594 577.527 0.520508 578.631 0.520508H600.513C601.617 0.520508 602.513 1.41594 602.513 2.52051V252.665C602.513 253.77 601.617 254.665 600.513 254.665H578.631C577.527 254.665 576.631 253.77 576.631 252.665V2.52051Z" fill="#525252"/>
<path d="M113.995 118.443C113.995 117.338 114.89 116.443 115.995 116.443H144.172C145.276 116.443 146.172 117.338 146.172 118.443V124.411C146.172 125.516 145.276 126.411 144.172 126.411H115.995C114.89 126.411 113.995 125.516 113.995 124.411V118.443Z" fill="#252525"/>
<path d="M113.995 134.757C113.995 133.652 114.89 132.757 115.995 132.757H144.172C145.276 132.757 146.172 133.652 146.172 134.757V140.725C146.172 141.83 145.276 142.725 144.172 142.725H115.995C114.89 142.725 113.995 141.83 113.995 140.725V134.757Z" fill="#252525"/>
<path fill-rule="evenodd" clip-rule="evenodd" d="M105.599 106.308L116.382 98.0845L105.616 89.8741L103.231 91.6934L111.611 98.0845L103.214 104.489L105.599 106.308Z" fill="#DA5757"/>
<path fill-rule="evenodd" clip-rule="evenodd" d="M80.1727 99.5911H111.401V96.5911H80.1727V99.5911Z" fill="#DA5757"/>
<path fill-rule="evenodd" clip-rule="evenodd" d="M105.599 170.288L116.382 162.064L105.616 153.854L103.231 155.673L111.611 162.064L103.214 168.469L105.599 170.288Z" fill="#DA5757"/>
<path fill-rule="evenodd" clip-rule="evenodd" d="M80.1727 163.571H111.401V160.571H80.1727V163.571Z" fill="#DA5757"/>
<path fill-rule="evenodd" clip-rule="evenodd" d="M39.618 75.4858L51.0321 66.7806L39.6364 58.0894L37.251 59.9087L46.2613 66.7806L37.2326 73.6665L39.618 75.4858Z" fill="#4472C4"/>
<path fill-rule="evenodd" clip-rule="evenodd" d="M-0.00195312 68.2875H45.7444V65.2875H-0.00195312V68.2875Z" fill="#4472C4"/>
<path fill-rule="evenodd" clip-rule="evenodd" d="M39.618 137.785L51.0321 129.08L39.6364 120.389L37.251 122.208L46.2613 129.08L37.2326 135.966L39.618 137.785Z" fill="#4472C4"/>
<path fill-rule="evenodd" clip-rule="evenodd" d="M-0.00195312 130.587H45.7444V127.587H-0.00195312V130.587Z" fill="#4472C4"/>
<path fill-rule="evenodd" clip-rule="evenodd" d="M39.618 200.085L51.0321 191.38L39.6364 182.688L37.251 184.508L46.2613 191.38L37.2326 198.266L39.618 200.085Z" fill="#4472C4"/>
<path fill-rule="evenodd" clip-rule="evenodd" d="M-0.00195312 192.886H45.7444V189.886H-0.00195312V192.886Z" fill="#4472C4"/>
<path d="M132.807 22.4876H130.908C130.704 22.4876 130.533 22.4336 130.395 22.3256C130.257 22.2176 130.128 22.0586 130.008 21.8486L126.939 17.3215C126.861 17.2015 126.783 17.1026 126.705 17.0245C126.627 16.9405 126.54 16.8745 126.444 16.8266C126.348 16.7725 126.24 16.7366 126.12 16.7186C126 16.6946 125.865 16.6825 125.715 16.6825H124.221V22.4876H122.115V9.52756H124.221V15.0715H125.49C125.754 15.0715 125.976 15.0295 126.156 14.9455C126.336 14.8615 126.513 14.6996 126.687 14.4596L129.792 10.1035C129.894 9.93556 130.017 9.79756 130.161 9.68956C130.311 9.58156 130.488 9.52756 130.692 9.52756H132.474L128.766 14.7835C128.616 15.0055 128.445 15.1886 128.253 15.3326C128.061 15.4766 127.848 15.5905 127.614 15.6745C127.95 15.7645 128.235 15.9116 128.469 16.1156C128.709 16.3196 128.934 16.6016 129.144 16.9616L132.807 22.4876Z" fill="black"/>
<path d="M137.325 13.1635C138.003 13.1635 138.615 13.2745 139.161 13.4965C139.713 13.7185 140.181 14.0335 140.565 14.4415C140.955 14.8495 141.255 15.3446 141.465 15.9266C141.675 16.5086 141.78 17.1625 141.78 17.8885C141.78 18.6145 141.675 19.2685 141.465 19.8505C141.255 20.4325 140.955 20.9306 140.565 21.3446C140.181 21.7526 139.713 22.0676 139.161 22.2896C138.615 22.5116 138.003 22.6226 137.325 22.6226C136.641 22.6226 136.023 22.5116 135.471 22.2896C134.925 22.0676 134.457 21.7526 134.067 21.3446C133.677 20.9306 133.377 20.4325 133.167 19.8505C132.957 19.2685 132.852 18.6145 132.852 17.8885C132.852 17.1625 132.957 16.5086 133.167 15.9266C133.377 15.3446 133.677 14.8495 134.067 14.4415C134.457 14.0335 134.925 13.7185 135.471 13.4965C136.023 13.2745 136.641 13.1635 137.325 13.1635ZM137.325 21.1105C138.153 21.1105 138.768 20.8346 139.17 20.2826C139.578 19.7246 139.782 18.9296 139.782 17.8976C139.782 16.8656 139.578 16.0705 139.17 15.5125C138.768 14.9485 138.153 14.6666 137.325 14.6666C136.485 14.6666 135.861 14.9485 135.453 15.5125C135.045 16.0705 134.841 16.8656 134.841 17.8976C134.841 18.9296 135.045 19.7246 135.453 20.2826C135.861 20.8346 136.485 21.1105 137.325 21.1105Z" fill="black"/>
<path d="M145.574 20.1835C145.844 20.5315 146.138 20.7776 146.456 20.9216C146.78 21.0596 147.137 21.1286 147.527 21.1286C148.283 21.1286 148.871 20.8526 149.291 20.3006C149.717 19.7486 149.93 18.9266 149.93 17.8346C149.93 17.2706 149.882 16.7906 149.786 16.3945C149.69 15.9926 149.552 15.6655 149.372 15.4135C149.192 15.1615 148.973 14.9786 148.715 14.8646C148.457 14.7506 148.166 14.6935 147.842 14.6935C147.35 14.6935 146.924 14.8015 146.564 15.0175C146.21 15.2276 145.88 15.5306 145.574 15.9266V20.1835ZM145.475 14.6395C145.859 14.1895 146.294 13.8266 146.78 13.5505C147.272 13.2745 147.842 13.1366 148.49 13.1366C149.006 13.1366 149.474 13.2416 149.894 13.4516C150.314 13.6556 150.674 13.9555 150.974 14.3515C151.274 14.7475 151.505 15.2396 151.667 15.8276C151.835 16.4096 151.919 17.0786 151.919 17.8346C151.919 18.5126 151.826 19.1455 151.64 19.7335C151.46 20.3155 151.199 20.8226 150.857 21.2546C150.515 21.6806 150.101 22.0166 149.615 22.2626C149.129 22.5026 148.58 22.6226 147.968 22.6226C147.428 22.6226 146.969 22.5356 146.591 22.3616C146.219 22.1876 145.88 21.9476 145.574 21.6416V25.5386H143.639V13.3075H144.809C145.073 13.3075 145.241 13.4305 145.313 13.6766L145.475 14.6395Z" fill="black"/>
<path d="M161.63 22.4876H159.704V14.7656H155.735V22.4876H153.8V13.3075H161.63V22.4876Z" fill="black"/>
<path d="M172.14 13.3075L167.082 25.0976C167.016 25.2356 166.935 25.3436 166.839 25.4216C166.749 25.4996 166.608 25.5386 166.416 25.5386H164.985L166.677 21.8666L162.933 13.3075H164.616C164.778 13.3075 164.901 13.3465 164.985 13.4245C165.075 13.4965 165.141 13.5836 165.183 13.6856L167.37 18.8965C167.424 19.0465 167.472 19.1965 167.514 19.3465C167.562 19.4905 167.607 19.6406 167.649 19.7966C167.697 19.6406 167.745 19.4875 167.793 19.3375C167.841 19.1875 167.895 19.0376 167.955 18.8876L170.052 13.6856C170.094 13.5776 170.163 13.4875 170.259 13.4155C170.361 13.3435 170.472 13.3075 170.592 13.3075H172.14Z" fill="black"/>
<path d="M179.624 15.1076C179.564 15.1856 179.507 15.2456 179.453 15.2876C179.399 15.3296 179.321 15.3506 179.219 15.3506C179.117 15.3506 179.009 15.3145 178.895 15.2425C178.787 15.1705 178.655 15.0926 178.499 15.0086C178.349 14.9186 178.166 14.8376 177.95 14.7656C177.734 14.6935 177.464 14.6575 177.14 14.6575C176.72 14.6575 176.351 14.7325 176.033 14.8825C175.721 15.0325 175.457 15.2485 175.241 15.5305C175.031 15.8065 174.872 16.1455 174.764 16.5475C174.662 16.9435 174.611 17.3905 174.611 17.8885C174.611 18.4045 174.668 18.8636 174.782 19.2656C174.896 19.6676 175.058 20.0066 175.268 20.2826C175.484 20.5586 175.742 20.7685 176.042 20.9125C176.348 21.0565 176.69 21.1286 177.068 21.1286C177.44 21.1286 177.743 21.0836 177.977 20.9936C178.211 20.9036 178.406 20.8046 178.562 20.6966C178.718 20.5886 178.85 20.4895 178.958 20.3995C179.072 20.3095 179.192 20.2645 179.318 20.2645C179.474 20.2645 179.594 20.3245 179.678 20.4445L180.227 21.1556C180.005 21.4255 179.759 21.6535 179.489 21.8396C179.219 22.0256 178.934 22.1786 178.634 22.2986C178.334 22.4126 178.022 22.4936 177.698 22.5416C177.374 22.5956 177.047 22.6226 176.717 22.6226C176.147 22.6226 175.613 22.5176 175.115 22.3076C174.623 22.0916 174.191 21.7826 173.819 21.3806C173.453 20.9726 173.162 20.4775 172.946 19.8955C172.736 19.3075 172.631 18.6385 172.631 17.8885C172.631 17.2105 172.727 16.5835 172.919 16.0075C173.111 15.4255 173.39 14.9246 173.756 14.5046C174.128 14.0846 174.587 13.7575 175.133 13.5235C175.679 13.2835 176.309 13.1635 177.023 13.1635C177.689 13.1635 178.274 13.2716 178.778 13.4876C179.288 13.7035 179.741 14.0095 180.137 14.4055L179.624 15.1076Z" fill="black"/>
<path d="M419.087 65.9694C419.201 65.9694 419.3 66.0144 419.384 66.1044L420.221 67.0134C419.693 67.6494 419.045 68.1414 418.277 68.4894C417.509 68.8314 416.591 69.0024 415.523 69.0024C414.575 69.0024 413.717 68.8404 412.949 68.5164C412.187 68.1864 411.536 67.7304 410.996 67.1484C410.456 66.5604 410.039 65.8614 409.745 65.0514C409.457 64.2414 409.313 63.3504 409.313 62.3784C409.313 61.4064 409.466 60.5154 409.772 59.7054C410.084 58.8894 410.519 58.1904 411.077 57.6084C411.641 57.0204 412.313 56.5644 413.093 56.2404C413.879 55.9164 414.743 55.7544 415.685 55.7544C416.621 55.7544 417.446 55.9074 418.16 56.2134C418.88 56.5134 419.504 56.9154 420.032 57.4194L419.339 58.4004C419.291 58.4664 419.234 58.5234 419.168 58.5714C419.102 58.6194 419.012 58.6434 418.898 58.6434C418.778 58.6434 418.64 58.5894 418.484 58.4814C418.334 58.3674 418.139 58.2444 417.899 58.1124C417.665 57.9744 417.368 57.8514 417.008 57.7434C416.654 57.6294 416.21 57.5724 415.676 57.5724C415.058 57.5724 414.491 57.6804 413.975 57.8964C413.459 58.1124 413.015 58.4274 412.643 58.8414C412.271 59.2554 411.98 59.7594 411.77 60.3534C411.566 60.9474 411.464 61.6224 411.464 62.3784C411.464 63.1404 411.572 63.8214 411.788 64.4214C412.004 65.0154 412.301 65.5194 412.679 65.9334C413.057 66.3414 413.501 66.6534 414.011 66.8694C414.521 67.0854 415.07 67.1934 415.658 67.1934C416.018 67.1934 416.339 67.1754 416.621 67.1394C416.909 67.0974 417.173 67.0344 417.413 66.9504C417.653 66.8604 417.878 66.7494 418.088 66.6174C418.304 66.4854 418.517 66.3234 418.727 66.1314C418.847 66.0234 418.967 65.9694 419.087 65.9694Z" fill="black"/>
<path d="M429.034 61.1364H425.65V68.8584H423.715V61.1364H420.322V59.6784H429.034V61.1364Z" fill="black"/>
<path d="M432.386 66.5544C432.656 66.9024 432.95 67.1484 433.268 67.2924C433.592 67.4304 433.949 67.4994 434.339 67.4994C435.095 67.4994 435.683 67.2234 436.103 66.6714C436.529 66.1194 436.742 65.2974 436.742 64.2054C436.742 63.6414 436.694 63.1614 436.598 62.7654C436.502 62.3634 436.364 62.0364 436.184 61.7844C436.004 61.5324 435.785 61.3494 435.527 61.2354C435.269 61.1214 434.978 61.0644 434.654 61.0644C434.162 61.0644 433.736 61.1724 433.376 61.3884C433.022 61.5984 432.692 61.9014 432.386 62.2974V66.5544ZM432.287 61.0104C432.671 60.5604 433.106 60.1974 433.592 59.9214C434.084 59.6454 434.654 59.5074 435.302 59.5074C435.818 59.5074 436.286 59.6124 436.706 59.8224C437.126 60.0264 437.486 60.3264 437.786 60.7224C438.086 61.1184 438.317 61.6104 438.479 62.1984C438.647 62.7804 438.731 63.4494 438.731 64.2054C438.731 64.8834 438.638 65.5164 438.452 66.1044C438.272 66.6864 438.011 67.1934 437.669 67.6254C437.327 68.0514 436.913 68.3874 436.427 68.6334C435.941 68.8734 435.392 68.9934 434.78 68.9934C434.24 68.9934 433.781 68.9064 433.403 68.7324C433.031 68.5584 432.692 68.3184 432.386 68.0124V71.9094H430.451V59.6784H431.621C431.885 59.6784 432.053 59.8014 432.125 60.0474L432.287 61.0104Z" fill="black"/>
<path d="M448.51 59.6784L443.452 71.4684C443.386 71.6064 443.305 71.7144 443.209 71.7924C443.119 71.8704 442.978 71.9094 442.786 71.9094H441.355L443.047 68.2374L439.303 59.6784H440.986C441.148 59.6784 441.271 59.7174 441.355 59.7954C441.445 59.8674 441.511 59.9544 441.553 60.0564L443.74 65.2674C443.794 65.4174 443.842 65.5674 443.884 65.7174C443.932 65.8614 443.977 66.0114 444.019 66.1674C444.067 66.0114 444.115 65.8584 444.163 65.7084C444.211 65.5584 444.265 65.4084 444.325 65.2584L446.422 60.0564C446.464 59.9484 446.533 59.8584 446.629 59.7864C446.731 59.7144 446.842 59.6784 446.962 59.6784H448.51Z" fill="black"/>
<path d="M454.294 63.8724V60.9564H452.935C452.623 60.9564 452.362 61.0014 452.152 61.0914C451.942 61.1814 451.774 61.2984 451.648 61.4424C451.522 61.5804 451.432 61.7364 451.378 61.9104C451.324 62.0844 451.297 62.2554 451.297 62.4234C451.297 62.8734 451.456 63.2274 451.774 63.4854C452.098 63.7434 452.533 63.8724 453.079 63.8724H454.294ZM456.139 59.6784V68.8584H454.294V65.0964H453.763C453.589 65.0964 453.445 65.1114 453.331 65.1414C453.217 65.1714 453.118 65.2134 453.034 65.2674C452.956 65.3214 452.884 65.3874 452.818 65.4654C452.758 65.5434 452.698 65.6304 452.638 65.7264L450.919 68.1834C450.793 68.4114 450.643 68.5824 450.469 68.6964C450.301 68.8044 450.046 68.8584 449.704 68.8584H448.372L450.847 65.5194C451.075 65.1234 451.393 64.8534 451.801 64.7094C451.357 64.6434 450.979 64.5294 450.667 64.3674C450.355 64.2054 450.103 64.0164 449.911 63.8004C449.719 63.5844 449.578 63.3504 449.488 63.0984C449.404 62.8404 449.362 62.5854 449.362 62.3334C449.362 62.0034 449.425 61.6794 449.551 61.3614C449.683 61.0434 449.89 60.7614 450.172 60.5154C450.454 60.2634 450.817 60.0624 451.261 59.9124C451.711 59.7564 452.251 59.6784 452.881 59.6784H456.139Z" fill="black"/>
<path d="M470.818 68.8584H468.892V61.1364H464.923V68.8584H462.988V59.6784H470.818V68.8584Z" fill="black"/>
<path d="M481.482 68.8584H479.547V61.1814H476.991C476.919 62.3274 476.808 63.3174 476.658 64.1514C476.514 64.9794 476.34 65.6814 476.136 66.2574C475.932 66.8334 475.704 67.3014 475.452 67.6614C475.2 68.0154 474.933 68.2914 474.651 68.4894C474.369 68.6874 474.078 68.8194 473.778 68.8854C473.484 68.9514 473.187 68.9844 472.887 68.9844C472.305 68.9844 472.014 68.8884 472.014 68.6964V67.4814H472.518C472.716 67.4814 472.917 67.4484 473.121 67.3824C473.331 67.3164 473.532 67.1874 473.724 66.9954C473.916 66.7974 474.099 66.5214 474.273 66.1674C474.453 65.8134 474.615 65.3484 474.759 64.7724C474.909 64.1904 475.038 63.4854 475.146 62.6574C475.254 61.8234 475.338 60.8304 475.398 59.6784H481.482V68.8584Z" fill="black"/>
<path d="M488.741 64.8444C488.051 64.8684 487.469 64.9254 486.995 65.0154C486.521 65.0994 486.137 65.2104 485.843 65.3484C485.549 65.4804 485.336 65.6394 485.204 65.8254C485.078 66.0114 485.015 66.2154 485.015 66.4374C485.015 66.6534 485.048 66.8394 485.114 66.9954C485.186 67.1454 485.282 67.2714 485.402 67.3734C485.528 67.4694 485.672 67.5414 485.834 67.5894C486.002 67.6314 486.185 67.6524 486.383 67.6524C486.887 67.6524 487.319 67.5594 487.679 67.3734C488.045 67.1814 488.399 66.9054 488.741 66.5454V64.8444ZM483.611 60.9564C484.649 59.9904 485.885 59.5074 487.319 59.5074C487.847 59.5074 488.315 59.5944 488.723 59.7684C489.137 59.9364 489.482 60.1764 489.758 60.4884C490.04 60.8004 490.253 61.1724 490.397 61.6044C490.547 62.0304 490.622 62.5044 490.622 63.0264V68.8584H489.758C489.572 68.8584 489.431 68.8314 489.335 68.7774C489.239 68.7174 489.158 68.6004 489.092 68.4264L488.903 67.6794C488.669 67.8894 488.438 68.0784 488.21 68.2464C487.982 68.4084 487.745 68.5464 487.499 68.6604C487.259 68.7744 486.998 68.8584 486.716 68.9124C486.44 68.9724 486.134 69.0024 485.798 69.0024C485.426 69.0024 485.078 68.9514 484.754 68.8494C484.436 68.7474 484.16 68.5944 483.926 68.3904C483.692 68.1804 483.506 67.9224 483.368 67.6164C483.236 67.3104 483.17 66.9504 483.17 66.5364C483.17 66.1824 483.263 65.8374 483.449 65.5014C483.641 65.1654 483.953 64.8654 484.385 64.6014C484.823 64.3314 485.396 64.1094 486.104 63.9354C486.818 63.7614 487.697 63.6624 488.741 63.6384V63.0264C488.741 62.3664 488.6 61.8744 488.318 61.5504C488.036 61.2264 487.622 61.0644 487.076 61.0644C486.704 61.0644 486.392 61.1124 486.14 61.2084C485.888 61.2984 485.669 61.3974 485.483 61.5054C485.297 61.6134 485.132 61.7154 484.988 61.8114C484.844 61.9014 484.691 61.9464 484.529 61.9464C484.397 61.9464 484.283 61.9134 484.187 61.8474C484.097 61.7754 484.022 61.6884 483.962 61.5864L483.611 60.9564Z" fill="black"/>
<path d="M492.331 60.6504C492.679 60.3204 493.105 60.0534 493.609 59.8494C494.113 59.6394 494.716 59.5344 495.418 59.5344C495.982 59.5344 496.48 59.6034 496.912 59.7414C497.344 59.8734 497.707 60.0534 498.001 60.2814C498.295 60.5034 498.517 60.7614 498.667 61.0554C498.823 61.3494 498.901 61.6554 498.901 61.9734C498.901 62.1534 498.874 62.3394 498.82 62.5314C498.766 62.7174 498.676 62.9004 498.55 63.0804C498.43 63.2604 498.268 63.4284 498.064 63.5844C497.866 63.7404 497.62 63.8694 497.326 63.9714C497.872 64.1514 498.304 64.4304 498.622 64.8084C498.94 65.1804 499.099 65.6454 499.099 66.2034C499.099 66.6414 498.997 67.0344 498.793 67.3824C498.595 67.7244 498.328 68.0154 497.992 68.2554C497.662 68.4954 497.278 68.6784 496.84 68.8044C496.408 68.9304 495.958 68.9934 495.49 68.9934C495.208 68.9934 494.914 68.9664 494.608 68.9124C494.308 68.8644 494.008 68.7834 493.708 68.6694C493.414 68.5494 493.129 68.3964 492.853 68.2104C492.577 68.0244 492.328 67.7964 492.106 67.5264L492.664 66.8154C492.736 66.6954 492.856 66.6354 493.024 66.6354C493.144 66.6354 493.267 66.6804 493.393 66.7704C493.519 66.8604 493.666 66.9594 493.834 67.0674C494.008 67.1754 494.215 67.2744 494.455 67.3644C494.701 67.4544 495.004 67.4994 495.364 67.4994C495.664 67.4994 495.931 67.4634 496.165 67.3914C496.399 67.3194 496.597 67.2174 496.759 67.0854C496.921 66.9534 497.044 66.8004 497.128 66.6264C497.212 66.4464 497.254 66.2514 497.254 66.0414C497.254 65.6334 497.086 65.3124 496.75 65.0784C496.42 64.8384 495.898 64.7184 495.184 64.7184H494.149V63.4404H495.184C495.808 63.4404 496.291 63.3264 496.633 63.0984C496.975 62.8704 497.146 62.5734 497.146 62.2074C497.146 61.8774 496.996 61.5984 496.696 61.3704C496.402 61.1424 495.958 61.0284 495.364 61.0284C495.028 61.0284 494.74 61.0644 494.5 61.1364C494.266 61.2024 494.068 61.2774 493.906 61.3614C493.744 61.4394 493.606 61.5114 493.492 61.5774C493.384 61.6434 493.288 61.6764 493.204 61.6764C493.114 61.6764 493.036 61.6584 492.97 61.6224C492.91 61.5864 492.844 61.5114 492.772 61.3974L492.331 60.6504Z" fill="black"/>
<path d="M511.415 59.6514V68.8584H509.678V63.3054C509.678 63.1134 509.69 62.8974 509.714 62.6574C509.738 62.4114 509.768 62.1834 509.804 61.9734L506.879 67.2294C506.819 67.3374 506.741 67.4244 506.645 67.4904C506.549 67.5504 506.441 67.5804 506.321 67.5804H506.114C505.994 67.5804 505.886 67.5504 505.79 67.4904C505.7 67.4244 505.625 67.3374 505.565 67.2294L502.586 61.9464C502.622 62.1564 502.652 62.3874 502.676 62.6394C502.706 62.8854 502.721 63.1074 502.721 63.3054V68.8584H500.975V59.6514H502.559C502.691 59.6514 502.82 59.6814 502.946 59.7414C503.078 59.8014 503.192 59.9184 503.288 60.0924L505.781 64.3584C505.865 64.5144 505.94 64.6824 506.006 64.8624C506.078 65.0424 506.147 65.2224 506.213 65.4024C506.279 65.2224 506.348 65.0424 506.42 64.8624C506.492 64.6824 506.57 64.5144 506.654 64.3584L509.111 60.0924C509.201 59.9124 509.312 59.7954 509.444 59.7414C509.576 59.6814 509.708 59.6514 509.84 59.6514H511.415Z" fill="black"/>
<path d="M517.434 67.4544C517.716 67.4544 517.962 67.4184 518.172 67.3464C518.388 67.2684 518.565 67.1664 518.703 67.0404C518.847 66.9084 518.952 66.7524 519.018 66.5724C519.09 66.3924 519.126 66.1944 519.126 65.9784C519.126 65.7864 519.093 65.6064 519.027 65.4384C518.967 65.2644 518.868 65.1144 518.73 64.9884C518.598 64.8564 518.424 64.7544 518.208 64.6824C517.992 64.6044 517.728 64.5654 517.416 64.5654H515.625V67.4544H517.434ZM517.407 63.1704C518.043 63.1704 518.58 63.2484 519.018 63.4044C519.456 63.5544 519.81 63.7584 520.08 64.0164C520.35 64.2744 520.545 64.5744 520.665 64.9164C520.785 65.2524 520.845 65.6034 520.845 65.9694C520.845 66.3954 520.77 66.7854 520.62 67.1394C520.47 67.4874 520.248 67.7904 519.954 68.0484C519.666 68.3064 519.309 68.5074 518.883 68.6514C518.463 68.7894 517.98 68.8584 517.434 68.8584H513.789V59.6784H515.625V63.1704H517.407ZM524.607 59.6784V68.8584H522.672V59.6784H524.607Z" fill="black"/>
<path d="M420.338 188.075H418.223V176.762H412.202V188.075H410.087V175.115H420.338V188.075Z" fill="black"/>
<path d="M426.739 178.751C427.417 178.751 428.029 178.862 428.575 179.084C429.127 179.306 429.595 179.621 429.979 180.029C430.369 180.437 430.669 180.932 430.879 181.514C431.089 182.096 431.194 182.75 431.194 183.476C431.194 184.202 431.089 184.856 430.879 185.438C430.669 186.02 430.369 186.518 429.979 186.932C429.595 187.34 429.127 187.655 428.575 187.877C428.029 188.099 427.417 188.21 426.739 188.21C426.055 188.21 425.437 188.099 424.885 187.877C424.339 187.655 423.871 187.34 423.481 186.932C423.091 186.518 422.791 186.02 422.581 185.438C422.371 184.856 422.266 184.202 422.266 183.476C422.266 182.75 422.371 182.096 422.581 181.514C422.791 180.932 423.091 180.437 423.481 180.029C423.871 179.621 424.339 179.306 424.885 179.084C425.437 178.862 426.055 178.751 426.739 178.751ZM426.739 186.698C427.567 186.698 428.182 186.422 428.584 185.87C428.992 185.312 429.196 184.517 429.196 183.485C429.196 182.453 428.992 181.658 428.584 181.1C428.182 180.536 427.567 180.254 426.739 180.254C425.899 180.254 425.275 180.536 424.867 181.1C424.459 181.658 424.255 182.453 424.255 183.485C424.255 184.517 424.459 185.312 424.867 185.87C425.275 186.422 425.899 186.698 426.739 186.698Z" fill="black"/>
<path d="M438.579 179.417C438.675 179.261 438.804 179.135 438.966 179.039C439.134 178.943 439.308 178.895 439.488 178.895H441L438.741 182.342C438.597 182.576 438.447 182.765 438.291 182.909C438.135 183.053 437.943 183.164 437.715 183.242C438.009 183.326 438.252 183.455 438.444 183.629C438.642 183.797 438.819 184.016 438.975 184.286L441.252 188.075H439.92C439.578 188.075 439.311 188.018 439.119 187.904C438.933 187.79 438.774 187.622 438.642 187.4L437.085 184.718C436.959 184.49 436.794 184.322 436.59 184.214C436.386 184.106 436.155 184.052 435.897 184.052H434.988V188.084H433.053V178.895H434.988V182.756H435.771C436.023 182.756 436.233 182.708 436.401 182.612C436.569 182.516 436.713 182.369 436.833 182.171L438.579 179.417Z" fill="black"/>
<path d="M444.55 185.771C444.82 186.119 445.114 186.365 445.432 186.509C445.756 186.647 446.113 186.716 446.503 186.716C447.259 186.716 447.847 186.44 448.267 185.888C448.693 185.336 448.906 184.514 448.906 183.422C448.906 182.858 448.858 182.378 448.762 181.982C448.666 181.58 448.528 181.253 448.348 181.001C448.168 180.749 447.949 180.566 447.691 180.452C447.433 180.338 447.142 180.281 446.818 180.281C446.326 180.281 445.9 180.389 445.54 180.605C445.186 180.815 444.856 181.118 444.55 181.514V185.771ZM444.451 180.227C444.835 179.777 445.27 179.414 445.756 179.138C446.248 178.862 446.818 178.724 447.466 178.724C447.982 178.724 448.45 178.829 448.87 179.039C449.29 179.243 449.65 179.543 449.95 179.939C450.25 180.335 450.481 180.827 450.643 181.415C450.811 181.997 450.895 182.666 450.895 183.422C450.895 184.1 450.802 184.733 450.616 185.321C450.436 185.903 450.175 186.41 449.833 186.842C449.491 187.268 449.077 187.604 448.591 187.85C448.105 188.09 447.556 188.21 446.944 188.21C446.404 188.21 445.945 188.123 445.567 187.949C445.195 187.775 444.856 187.535 444.55 187.229V191.126H442.615V178.895H443.785C444.049 178.895 444.217 179.018 444.289 179.264L444.451 180.227Z" fill="black"/>
<path d="M456.421 186.671C456.703 186.671 456.949 186.635 457.159 186.563C457.375 186.485 457.552 186.383 457.69 186.257C457.834 186.125 457.939 185.969 458.005 185.789C458.077 185.609 458.113 185.411 458.113 185.195C458.113 185.003 458.08 184.823 458.014 184.655C457.954 184.481 457.855 184.331 457.717 184.205C457.585 184.073 457.411 183.971 457.195 183.899C456.979 183.821 456.715 183.782 456.403 183.782H454.612V186.671H456.421ZM456.394 182.387C457.03 182.387 457.567 182.465 458.005 182.621C458.443 182.771 458.797 182.975 459.067 183.233C459.337 183.491 459.532 183.791 459.652 184.133C459.772 184.469 459.832 184.82 459.832 185.186C459.832 185.612 459.757 186.002 459.607 186.356C459.457 186.704 459.235 187.007 458.941 187.265C458.653 187.523 458.296 187.724 457.87 187.868C457.45 188.006 456.967 188.075 456.421 188.075H452.776V178.895H454.612V182.387H456.394ZM463.594 178.895V188.075H461.659V178.895H463.594Z" fill="black"/>
<path d="M473.717 180.353H470.333V188.075H468.398V180.353H465.005V178.895H473.717V180.353Z" fill="black"/>
<path d="M483.208 178.895V188.075H481.273V182.324C481.273 182.198 481.279 182.06 481.291 181.91C481.303 181.76 481.321 181.607 481.345 181.451C481.285 181.583 481.225 181.706 481.165 181.82C481.111 181.928 481.051 182.027 480.985 182.117L476.998 187.598C476.926 187.712 476.83 187.823 476.71 187.931C476.59 188.033 476.455 188.084 476.305 188.084H475.135V178.895H477.07V184.646C477.07 184.772 477.061 184.913 477.043 185.069C477.031 185.225 477.013 185.381 476.989 185.537C477.109 185.261 477.232 185.033 477.358 184.853L481.345 179.381C481.417 179.261 481.513 179.15 481.633 179.048C481.753 178.946 481.888 178.895 482.038 178.895H483.208Z" fill="black"/>
<path d="M491.58 182.45C491.58 182.126 491.532 181.826 491.436 181.55C491.346 181.268 491.211 181.025 491.031 180.821C490.851 180.611 490.626 180.449 490.356 180.335C490.092 180.215 489.786 180.155 489.438 180.155C488.736 180.155 488.184 180.356 487.782 180.758C487.38 181.16 487.125 181.724 487.017 182.45H491.58ZM486.963 183.638C486.987 184.16 487.068 184.613 487.206 184.997C487.344 185.375 487.527 185.69 487.755 185.942C487.989 186.194 488.265 186.383 488.583 186.509C488.907 186.629 489.267 186.689 489.663 186.689C490.041 186.689 490.368 186.647 490.644 186.563C490.92 186.473 491.16 186.377 491.364 186.275C491.568 186.167 491.742 186.071 491.886 185.987C492.03 185.897 492.162 185.852 492.282 185.852C492.438 185.852 492.558 185.912 492.642 186.032L493.191 186.743C492.963 187.013 492.705 187.241 492.417 187.427C492.129 187.613 491.823 187.766 491.499 187.886C491.175 188 490.842 188.081 490.5 188.129C490.158 188.183 489.825 188.21 489.501 188.21C488.865 188.21 488.274 188.105 487.728 187.895C487.188 187.679 486.717 187.364 486.315 186.95C485.919 186.536 485.607 186.023 485.379 185.411C485.157 184.799 485.046 184.094 485.046 183.296C485.046 182.66 485.145 182.066 485.343 181.514C485.547 180.962 485.835 180.482 486.207 180.074C486.585 179.666 487.041 179.345 487.575 179.111C488.115 178.871 488.724 178.751 489.402 178.751C489.966 178.751 490.488 178.844 490.968 179.03C491.448 179.21 491.862 179.477 492.21 179.831C492.558 180.185 492.828 180.62 493.02 181.136C493.218 181.646 493.317 182.228 493.317 182.882C493.317 183.182 493.284 183.383 493.218 183.485C493.152 183.587 493.032 183.638 492.858 183.638H486.963Z" fill="black"/>
<path d="M261.771 246.224C261.885 246.224 261.984 246.269 262.068 246.359L262.905 247.268C262.377 247.904 261.729 248.396 260.961 248.744C260.193 249.086 259.275 249.257 258.207 249.257C257.259 249.257 256.401 249.095 255.633 248.771C254.871 248.441 254.22 247.985 253.68 247.403C253.14 246.815 252.723 246.116 252.429 245.306C252.141 244.496 251.997 243.605 251.997 242.633C251.997 241.661 252.15 240.77 252.456 239.96C252.768 239.144 253.203 238.445 253.761 237.863C254.325 237.275 254.997 236.819 255.777 236.495C256.563 236.171 257.427 236.009 258.369 236.009C259.305 236.009 260.13 236.162 260.844 236.468C261.564 236.768 262.188 237.17 262.716 237.674L262.023 238.655C261.975 238.721 261.918 238.778 261.852 238.826C261.786 238.874 261.696 238.898 261.582 238.898C261.462 238.898 261.324 238.844 261.168 238.736C261.018 238.622 260.823 238.499 260.583 238.367C260.349 238.229 260.052 238.106 259.692 237.998C259.338 237.884 258.894 237.827 258.36 237.827C257.742 237.827 257.175 237.935 256.659 238.151C256.143 238.367 255.699 238.682 255.327 239.096C254.955 239.51 254.664 240.014 254.454 240.608C254.25 241.202 254.148 241.877 254.148 242.633C254.148 243.395 254.256 244.076 254.472 244.676C254.688 245.27 254.985 245.774 255.363 246.188C255.741 246.596 256.185 246.908 256.695 247.124C257.205 247.34 257.754 247.448 258.342 247.448C258.702 247.448 259.023 247.43 259.305 247.394C259.593 247.352 259.857 247.289 260.097 247.205C260.337 247.115 260.562 247.004 260.772 246.872C260.988 246.74 261.201 246.578 261.411 246.386C261.531 246.278 261.651 246.224 261.771 246.224Z" fill="black"/>
<path d="M268.14 239.789C268.818 239.789 269.43 239.9 269.976 240.122C270.528 240.344 270.996 240.659 271.38 241.067C271.77 241.475 272.07 241.97 272.28 242.552C272.49 243.134 272.595 243.788 272.595 244.514C272.595 245.24 272.49 245.894 272.28 246.476C272.07 247.058 271.77 247.556 271.38 247.97C270.996 248.378 270.528 248.693 269.976 248.915C269.43 249.137 268.818 249.248 268.14 249.248C267.456 249.248 266.838 249.137 266.286 248.915C265.74 248.693 265.272 248.378 264.882 247.97C264.492 247.556 264.192 247.058 263.982 246.476C263.772 245.894 263.667 245.24 263.667 244.514C263.667 243.788 263.772 243.134 263.982 242.552C264.192 241.97 264.492 241.475 264.882 241.067C265.272 240.659 265.74 240.344 266.286 240.122C266.838 239.9 267.456 239.789 268.14 239.789ZM268.14 247.736C268.968 247.736 269.583 247.46 269.985 246.908C270.393 246.35 270.597 245.555 270.597 244.523C270.597 243.491 270.393 242.696 269.985 242.138C269.583 241.574 268.968 241.292 268.14 241.292C267.3 241.292 266.676 241.574 266.268 242.138C265.86 242.696 265.656 243.491 265.656 244.523C265.656 245.555 265.86 246.35 266.268 246.908C266.676 247.46 267.3 247.736 268.14 247.736Z" fill="black"/>
<path d="M282.284 249.113H280.358V241.391H276.389V249.113H274.454V239.933H282.284V249.113Z" fill="black"/>
<path d="M292.947 249.113H291.012V241.436H288.456C288.384 242.582 288.273 243.572 288.123 244.406C287.979 245.234 287.805 245.936 287.601 246.512C287.397 247.088 287.169 247.556 286.917 247.916C286.665 248.27 286.398 248.546 286.116 248.744C285.834 248.942 285.543 249.074 285.243 249.14C284.949 249.206 284.652 249.239 284.352 249.239C283.77 249.239 283.479 249.143 283.479 248.951V247.736H283.983C284.181 247.736 284.382 247.703 284.586 247.637C284.796 247.571 284.997 247.442 285.189 247.25C285.381 247.052 285.564 246.776 285.738 246.422C285.918 246.068 286.08 245.603 286.224 245.027C286.374 244.445 286.503 243.74 286.611 242.912C286.719 242.078 286.803 241.085 286.863 239.933H292.947V249.113Z" fill="black"/>
<path d="M299.27 239.789C299.948 239.789 300.56 239.9 301.106 240.122C301.658 240.344 302.126 240.659 302.51 241.067C302.9 241.475 303.2 241.97 303.41 242.552C303.62 243.134 303.725 243.788 303.725 244.514C303.725 245.24 303.62 245.894 303.41 246.476C303.2 247.058 302.9 247.556 302.51 247.97C302.126 248.378 301.658 248.693 301.106 248.915C300.56 249.137 299.948 249.248 299.27 249.248C298.586 249.248 297.968 249.137 297.416 248.915C296.87 248.693 296.402 248.378 296.012 247.97C295.622 247.556 295.322 247.058 295.112 246.476C294.902 245.894 294.797 245.24 294.797 244.514C294.797 243.788 294.902 243.134 295.112 242.552C295.322 241.97 295.622 241.475 296.012 241.067C296.402 240.659 296.87 240.344 297.416 240.122C297.968 239.9 298.586 239.789 299.27 239.789ZM299.27 247.736C300.098 247.736 300.713 247.46 301.115 246.908C301.523 246.35 301.727 245.555 301.727 244.523C301.727 243.491 301.523 242.696 301.115 242.138C300.713 241.574 300.098 241.292 299.27 241.292C298.43 241.292 297.806 241.574 297.398 242.138C296.99 242.696 296.786 243.491 296.786 244.523C296.786 245.555 296.99 246.35 297.398 246.908C297.806 247.46 298.43 247.736 299.27 247.736Z" fill="black"/>
<path d="M155.403 249.113H153.504C153.3 249.113 153.129 249.059 152.991 248.951C152.853 248.843 152.724 248.684 152.604 248.474L149.535 243.947C149.457 243.827 149.379 243.728 149.301 243.65C149.223 243.566 149.136 243.5 149.04 243.452C148.944 243.398 148.836 243.362 148.716 243.344C148.596 243.32 148.461 243.308 148.311 243.308H146.817V249.113H144.711V236.153H146.817V241.697H148.086C148.35 241.697 148.572 241.655 148.752 241.571C148.932 241.487 149.109 241.325 149.283 241.085L152.388 236.729C152.49 236.561 152.613 236.423 152.757 236.315C152.907 236.207 153.084 236.153 153.288 236.153H155.07L151.362 241.409C151.212 241.631 151.041 241.814 150.849 241.958C150.657 242.102 150.444 242.216 150.21 242.3C150.546 242.39 150.831 242.537 151.065 242.741C151.305 242.945 151.53 243.227 151.74 243.587L155.403 249.113Z" fill="black"/>
<path d="M161.42 245.099C160.73 245.123 160.148 245.18 159.674 245.27C159.2 245.354 158.816 245.465 158.522 245.603C158.228 245.735 158.015 245.894 157.883 246.08C157.757 246.266 157.694 246.47 157.694 246.692C157.694 246.908 157.727 247.094 157.793 247.25C157.865 247.4 157.961 247.526 158.081 247.628C158.207 247.724 158.351 247.796 158.513 247.844C158.681 247.886 158.864 247.907 159.062 247.907C159.566 247.907 159.998 247.814 160.358 247.628C160.724 247.436 161.078 247.16 161.42 246.8V245.099ZM156.29 241.211C157.328 240.245 158.564 239.762 159.998 239.762C160.526 239.762 160.994 239.849 161.402 240.023C161.816 240.191 162.161 240.431 162.437 240.743C162.719 241.055 162.932 241.427 163.076 241.859C163.226 242.285 163.301 242.759 163.301 243.281V249.113H162.437C162.251 249.113 162.11 249.086 162.014 249.032C161.918 248.972 161.837 248.855 161.771 248.681L161.582 247.934C161.348 248.144 161.117 248.333 160.889 248.501C160.661 248.663 160.424 248.801 160.178 248.915C159.938 249.029 159.677 249.113 159.395 249.167C159.119 249.227 158.813 249.257 158.477 249.257C158.105 249.257 157.757 249.206 157.433 249.104C157.115 249.002 156.839 248.849 156.605 248.645C156.371 248.435 156.185 248.177 156.047 247.871C155.915 247.565 155.849 247.205 155.849 246.791C155.849 246.437 155.942 246.092 156.128 245.756C156.32 245.42 156.632 245.12 157.064 244.856C157.502 244.586 158.075 244.364 158.783 244.19C159.497 244.016 160.376 243.917 161.42 243.893V243.281C161.42 242.621 161.279 242.129 160.997 241.805C160.715 241.481 160.301 241.319 159.755 241.319C159.383 241.319 159.071 241.367 158.819 241.463C158.567 241.553 158.348 241.652 158.162 241.76C157.976 241.868 157.811 241.97 157.667 242.066C157.523 242.156 157.37 242.201 157.208 242.201C157.076 242.201 156.962 242.168 156.866 242.102C156.776 242.03 156.701 241.943 156.641 241.841L156.29 241.211Z" fill="black"/>
<path d="M173.133 241.391H169.749V249.113H167.814V241.391H164.421V239.933H173.133V241.391Z" fill="black"/>
<path d="M178.203 239.789C178.881 239.789 179.493 239.9 180.039 240.122C180.591 240.344 181.059 240.659 181.443 241.067C181.833 241.475 182.133 241.97 182.343 242.552C182.553 243.134 182.658 243.788 182.658 244.514C182.658 245.24 182.553 245.894 182.343 246.476C182.133 247.058 181.833 247.556 181.443 247.97C181.059 248.378 180.591 248.693 180.039 248.915C179.493 249.137 178.881 249.248 178.203 249.248C177.519 249.248 176.901 249.137 176.349 248.915C175.803 248.693 175.335 248.378 174.945 247.97C174.555 247.556 174.255 247.058 174.045 246.476C173.835 245.894 173.73 245.24 173.73 244.514C173.73 243.788 173.835 243.134 174.045 242.552C174.255 241.97 174.555 241.475 174.945 241.067C175.335 240.659 175.803 240.344 176.349 240.122C176.901 239.9 177.519 239.789 178.203 239.789ZM178.203 247.736C179.031 247.736 179.646 247.46 180.048 246.908C180.456 246.35 180.66 245.555 180.66 244.523C180.66 243.491 180.456 242.696 180.048 242.138C179.646 241.574 179.031 241.292 178.203 241.292C177.363 241.292 176.739 241.574 176.331 242.138C175.923 242.696 175.719 243.491 175.719 244.523C175.719 245.555 175.923 246.35 176.331 246.908C176.739 247.46 177.363 247.736 178.203 247.736Z" fill="black"/>
<path d="M190.438 247.718V241.436H187.864C187.81 242.276 187.732 243.029 187.63 243.695C187.534 244.361 187.42 244.952 187.288 245.468C187.162 245.978 187.021 246.419 186.865 246.791C186.709 247.157 186.547 247.466 186.379 247.718H190.438ZM193.993 247.655V251.642C193.993 251.822 193.939 251.963 193.831 252.065C193.729 252.173 193.597 252.227 193.435 252.227H192.238V249.113H184.975V251.678C184.975 251.816 184.93 251.942 184.84 252.056C184.756 252.17 184.624 252.227 184.444 252.227H183.22V247.718H183.499C183.709 247.718 183.916 247.688 184.12 247.628C184.324 247.562 184.519 247.433 184.705 247.241C184.891 247.049 185.068 246.779 185.236 246.431C185.404 246.077 185.554 245.612 185.686 245.036C185.824 244.46 185.944 243.755 186.046 242.921C186.148 242.087 186.229 241.091 186.289 239.933H192.31V247.655H193.993Z" fill="black"/>
<path fill-rule="evenodd" clip-rule="evenodd" d="M149.52 56.0369C147.053 56.5049 145.187 58.6729 145.187 61.2766C145.187 64.2221 147.575 66.6099 150.52 66.6099C153.466 66.6099 155.853 64.2221 155.853 61.2766C155.853 58.6729 153.988 56.5049 151.52 56.0369V27.5466H149.52V56.0369Z" fill="black"/>
<path fill-rule="evenodd" clip-rule="evenodd" d="M168.035 147.965C170.503 147.497 172.368 145.329 172.368 142.725C172.368 139.78 169.981 137.392 167.035 137.392C164.09 137.392 161.702 139.78 161.702 142.725C161.702 145.329 163.568 147.497 166.035 147.965V231.113H168.035V147.965Z" fill="black"/>
<path fill-rule="evenodd" clip-rule="evenodd" d="M274.074 169.784C276.541 169.316 278.407 167.148 278.407 164.544C278.407 161.598 276.019 159.211 273.074 159.211C270.128 159.211 267.74 161.598 267.74 164.544C267.74 167.148 269.606 169.316 272.074 169.784V231.113H274.074V169.784Z" fill="black"/>
<path fill-rule="evenodd" clip-rule="evenodd" d="M308.427 80.6626C305.96 81.1307 304.094 83.2986 304.094 85.9024C304.094 88.8479 306.482 91.2357 309.427 91.2357C312.373 91.2357 314.761 88.8479 314.761 85.9024C314.761 83.2986 312.895 81.1307 310.427 80.6626V27.5466H308.427V80.6626Z" fill="black"/>
<path fill-rule="evenodd" clip-rule="evenodd" d="M465.474 122.353C463.006 122.821 461.14 124.989 461.14 127.593C461.14 130.538 463.528 132.926 466.474 132.926C469.419 132.926 471.807 130.538 471.807 127.593C471.807 124.989 469.941 122.821 467.474 122.353V78.2649H465.474V122.353Z" fill="black"/>
<path fill-rule="evenodd" clip-rule="evenodd" d="M563.965 184.082C564.433 186.549 566.601 188.415 569.205 188.415C572.151 188.415 574.538 186.027 574.538 183.082C574.538 180.136 572.151 177.748 569.205 177.748C566.601 177.748 564.433 179.614 563.965 182.082H498.322V184.082H563.965Z" fill="black"/>
<path fill-rule="evenodd" clip-rule="evenodd" d="M584.333 234.826C584.801 237.294 586.969 239.16 589.572 239.16C592.518 239.16 594.906 236.772 594.906 233.826C594.906 230.881 592.518 228.493 589.572 228.493C586.969 228.493 584.801 230.359 584.333 232.826H536.374V234.826H584.333Z" fill="black"/>
<path d="M152.685 61.2766C152.685 62.4851 151.716 63.4648 150.52 63.4648C149.325 63.4648 148.356 62.4851 148.356 61.2766C148.356 60.0681 149.325 59.0884 150.52 59.0884C151.716 59.0884 152.685 60.0681 152.685 61.2766Z" fill="white"/>
<path d="M311.592 85.9023C311.592 87.1109 310.623 88.0906 309.428 88.0906C308.232 88.0906 307.263 87.1109 307.263 85.9023C307.263 84.6938 308.232 83.7141 309.428 83.7141C310.623 83.7141 311.592 84.6938 311.592 85.9023Z" fill="white"/>
<path d="M169.2 142.725C169.2 143.934 168.231 144.914 167.035 144.914C165.84 144.914 164.871 143.934 164.871 142.725C164.871 141.517 165.84 140.537 167.035 140.537C168.231 140.537 169.2 141.517 169.2 142.725Z" fill="white"/>
<path d="M275.238 164.259C275.238 165.468 274.268 166.447 273.073 166.447C271.878 166.447 270.908 165.468 270.908 164.259C270.908 163.051 271.878 162.071 273.073 162.071C274.268 162.071 275.238 163.051 275.238 164.259Z" fill="white"/>
<path d="M468.638 127.593C468.638 128.802 467.669 129.781 466.474 129.781C465.278 129.781 464.309 128.802 464.309 127.593C464.309 126.384 465.278 125.405 466.474 125.405C467.669 125.405 468.638 126.384 468.638 127.593Z" fill="white"/>
<path d="M571.369 183.082C571.369 184.29 570.4 185.27 569.205 185.27C568.009 185.27 567.04 184.29 567.04 183.082C567.04 181.873 568.009 180.894 569.205 180.894C570.4 180.894 571.369 181.873 571.369 183.082Z" fill="white"/>
<path d="M591.737 233.826C591.737 235.035 590.767 236.014 589.572 236.014C588.377 236.014 587.407 235.035 587.407 233.826C587.407 232.618 588.377 231.638 589.572 231.638C590.767 231.638 591.737 232.618 591.737 233.826Z" fill="white"/>
<defs>
<linearGradient id="paint0_linear_1_2" x1="254.144" y1="128.508" x2="553" y2="128.508" gradientUnits="userSpaceOnUse">
<stop stop-color="#760064" stop-opacity="0"/>
<stop offset="0.24" stop-color="#8D0053"/>
<stop offset="0.482292" stop-color="#F0000A"/>
<stop offset="0.701042" stop-color="#FF6201"/>
<stop offset="1" stop-color="#FFE200"/>
</linearGradient>
</defs>
</svg>
