<svg width="25" height="38" viewBox="0 0 25 38" fill="none" xmlns="http://www.w3.org/2000/svg">
<rect width="25" height="4" fill="#FFA500"/>
<rect y="34" width="25" height="4" fill="#FFA500"/>
<path d="M21 0H25V11H21V0Z" fill="#FFA500"/>
<mask id="path-4-inside-1_6_17" fill="white">
<path fill-rule="evenodd" clip-rule="evenodd" d="M0 22.572C0.96933 22.7215 1.9726 22.8 3 22.8C11.2843 22.8 18 17.696 18 11.4C18 5.10395 11.2843 0 3 0C1.9726 0 0.96933 0.078501 0 0.228041V4.28806C0.944604 4.10204 1.94931 4 3 4C6.34786 4 9.22886 5.03601 11.1863 6.52363C13.1407 8.009 14 9.77055 14 11.4C14 13.0295 13.1407 14.791 11.1863 16.2764C9.22886 17.764 6.34786 18.8 3 18.8C1.94931 18.8 0.944604 18.698 0 18.5119V22.572Z"/>
</mask>
<path d="M0 22.572H-4V26.0022L-0.609871 26.5252L0 22.572ZM0 0.228041L-0.609873 -3.72519L-4 -3.20219V0.228041H0ZM0 4.28806H-4V9.15259L0.772864 8.21268L0 4.28806ZM11.1863 6.52363L8.76593 9.70828L8.76594 9.70828L11.1863 6.52363ZM11.1863 16.2764L8.76594 13.0917L8.76593 13.0917L11.1863 16.2764ZM0 18.5119L0.772864 14.5873L-4 13.6474V18.5119H0ZM-0.609871 26.5252C0.561832 26.706 1.769 26.8 3 26.8V18.8C2.17621 18.8 1.37683 18.737 0.609871 18.6187L-0.609871 26.5252ZM3 26.8C7.93641 26.8 12.5554 25.284 16.0269 22.6457C19.5014 20.005 22 16.0666 22 11.4H14C14 13.0295 13.1407 14.791 11.1863 16.2764C9.22887 17.764 6.34786 18.8 3 18.8V26.8ZM22 11.4C22 6.7334 19.5014 2.79495 16.0269 0.154334C12.5554 -2.48403 7.93641 -4 3 -4V4C6.34786 4 9.22887 5.036 11.1863 6.52363C13.1407 8.009 14 9.77055 14 11.4H22ZM3 -4C1.769 -4 0.561831 -3.90595 -0.609873 -3.72519L0.609873 4.18127C1.37683 4.06296 2.17621 4 3 4V-4ZM-4 0.228041V4.28806H4V0.228041H-4ZM3 0C1.69047 0 0.426913 0.127166 -0.772864 0.363434L0.772864 8.21268C1.4623 8.07692 2.20815 8 3 8V0ZM13.6066 3.33898C10.8928 1.27653 7.14311 0 3 0V8C5.55261 8 7.56488 8.79548 8.76593 9.70828L13.6066 3.33898ZM18 11.4C18 8.26514 16.3337 5.41157 13.6066 3.33898L8.76594 9.70828C9.94771 10.6064 10 11.276 10 11.4H18ZM13.6066 19.461C16.3337 17.3884 18 14.5349 18 11.4H10C10 11.524 9.94771 12.1936 8.76594 13.0917L13.6066 19.461ZM3 22.8C7.14311 22.8 10.8928 21.5235 13.6066 19.461L8.76593 13.0917C7.56488 14.0045 5.55261 14.8 3 14.8V22.8ZM-0.772864 22.4366C0.426913 22.6728 1.69047 22.8 3 22.8V14.8C2.20815 14.8 1.4623 14.7231 0.772864 14.5873L-0.772864 22.4366ZM-4 18.5119V22.572H4V18.5119H-4Z" fill="white" mask="url(#path-4-inside-1_6_17)"/>
<circle cx="15.5" cy="28.5" r="7.5" transform="rotate(-180 15.5 28.5)" stroke="white" stroke-width="4"/>
<rect x="21" y="11" width="4" height="27" fill="white"/>
<rect width="4" height="38" fill="white"/>
</svg>
