<svg width="1485" height="177" viewBox="0 0 1485 177" fill="none" xmlns="http://www.w3.org/2000/svg">
<g clip-path="url(#clip0_1_1445)">
<path d="M32.379 98.2698V86.4081H53.8213C57.5471 86.4081 60.5316 85.8188 62.7746 84.6402C65.0557 83.4617 66.7285 81.8269 67.793 79.7359C68.8576 77.6449 69.3898 75.2497 69.3898 72.5504C69.3898 69.9652 68.8576 67.551 67.793 65.3079C66.7285 63.0648 65.0557 61.24 62.7746 59.8333C60.5316 58.4266 57.5471 57.7233 53.8213 57.7233H36.8271V128.894H22.114V45.8615H53.8213C60.2844 45.8615 65.7781 47.0021 70.3023 49.2832C74.8264 51.5643 78.2671 54.7008 80.6242 58.6927C83.0194 62.6846 84.217 67.2659 84.217 72.4363C84.217 77.7969 83.0194 82.4162 80.6242 86.294C78.2671 90.1339 74.8264 93.0993 70.3023 95.1903C65.7781 97.2433 60.2844 98.2698 53.8213 98.2698H32.379ZM163.072 128.894H121.442V117.089H163.072V128.894ZM125.548 128.894H110.835V45.8615H125.548V128.894ZM197.332 128.894H181.878L213.129 45.8615H222.937L221.968 57.6662L197.332 128.894ZM217.691 57.6662L216.607 45.8615H226.473L257.838 128.894H242.384L217.691 57.6662ZM241.414 109.903H196.192V98.0417H241.414V109.903ZM324.604 107.451C324.604 105.208 324.129 103.307 323.178 101.748C322.266 100.152 320.536 98.688 317.989 97.3574C315.441 95.9887 311.773 94.563 306.982 93.0803C303.066 91.9017 299.436 90.5521 296.09 89.0313C292.782 87.5106 289.893 85.7618 287.422 83.7848C284.951 81.7698 283.012 79.4507 281.605 76.8275C280.236 74.1662 279.552 71.1057 279.552 67.646C279.552 63.1219 280.807 59.1489 283.316 55.7273C285.825 52.2676 289.304 49.5683 293.752 47.6294C298.2 45.6905 303.352 44.721 309.206 44.721C315.441 44.721 320.802 45.8615 325.288 48.1426C329.774 50.3857 333.215 53.4272 335.61 57.267C338.043 61.1069 339.26 65.3839 339.26 70.0982H324.547C324.547 67.475 323.976 65.1368 322.836 63.0838C321.733 60.9928 320.042 59.3771 317.76 58.2365C315.479 57.0579 312.571 56.4687 309.035 56.4687C305.728 56.4687 302.971 56.9629 300.766 57.9514C298.561 58.9398 296.926 60.2705 295.862 61.9433C294.797 63.6161 294.265 65.517 294.265 67.646C294.265 69.661 294.911 71.4479 296.204 73.0066C297.497 74.5654 299.455 75.9911 302.078 77.2837C304.701 78.5383 307.971 79.7549 311.887 80.9334C318.046 82.7203 323.159 84.8113 327.227 87.2065C331.295 89.6016 334.317 92.434 336.294 95.7036C338.309 98.9731 339.317 102.851 339.317 107.337C339.317 112.013 338.1 116.062 335.667 119.484C333.234 122.868 329.793 125.472 325.345 127.297C320.897 129.122 315.669 130.034 309.663 130.034C305.671 130.034 301.736 129.502 297.858 128.437C293.98 127.335 290.463 125.7 287.308 123.533C284.19 121.328 281.681 118.572 279.78 115.264C277.917 111.956 276.986 108.06 276.986 103.573H291.699C291.699 106.235 292.155 108.497 293.068 110.36C293.98 112.223 295.254 113.762 296.888 114.979C298.523 116.157 300.424 117.013 302.591 117.545C304.796 118.077 307.153 118.343 309.663 118.343C312.97 118.343 315.726 117.887 317.932 116.975C320.137 116.024 321.79 114.732 322.893 113.097C324.033 111.462 324.604 109.58 324.604 107.451ZM385.039 45.8615L408.649 109.162L432.258 45.8615H445.374L413.838 128.894H403.459L371.98 45.8615H385.039ZM378.424 45.8615L380.591 102.262V128.894H365.935V45.8615H378.424ZM451.419 45.8615V128.894H436.706V102.262L438.93 45.8615H451.419ZM490.184 128.894H474.73L505.981 45.8615H515.79L514.82 57.6662L490.184 128.894ZM510.543 57.6662L509.459 45.8615H519.325L550.69 128.894H535.236L510.543 57.6662ZM534.266 109.903H489.044V98.0417H534.266V109.903ZM795.94 128.894L796.055 117.089H813.619C818.713 117.089 822.972 115.986 826.393 113.781C829.815 111.576 832.4 108.421 834.149 104.315C835.898 100.171 836.772 95.2283 836.772 89.4876V85.1535C836.772 79.2606 835.898 74.2802 834.149 70.2123C832.438 66.1443 829.891 63.0458 826.507 60.9168C823.124 58.7878 818.999 57.7233 814.132 57.7233H795.598V45.8615H814.132C821.546 45.8615 828.047 47.4963 833.636 50.7659C839.262 54.0355 843.653 58.6167 846.809 64.5095C849.965 70.4024 851.542 77.3217 851.542 85.2675V89.4876C851.542 97.4714 849.965 104.41 846.809 110.303C843.653 116.195 839.224 120.777 833.522 124.046C827.857 127.278 821.223 128.894 813.619 128.894H795.94ZM804.152 128.894H789.439V45.8615H804.152V128.894ZM907.073 84.9824L926.063 45.8615H942.316L914.487 98.3839V128.894H899.66V98.3839L871.83 45.8615H888.14L907.073 84.9824ZM1031.27 128.894H1016.5L979.884 70.3834V128.894H965.171V45.8615H979.884L1016.61 104.486V45.8615H1031.27V128.894ZM1070.14 128.894H1054.69L1085.94 45.8615H1095.75L1094.78 57.6662L1070.14 128.894ZM1090.5 57.6662L1089.42 45.8615H1099.29L1130.65 128.894H1115.2L1090.5 57.6662ZM1114.23 109.903H1069V98.0417H1114.23V109.903ZM1173.01 45.8615L1196.62 109.162L1220.23 45.8615H1233.34L1201.81 128.894H1191.43L1159.95 45.8615H1173.01ZM1166.39 45.8615L1168.56 102.262V128.894H1153.9V45.8615H1166.39ZM1239.39 45.8615V128.894H1224.68V102.262L1226.9 45.8615H1239.39ZM1285.74 128.894H1271.08V45.8615H1285.74V128.894ZM1380.9 101.748C1380.45 107.185 1378.91 112.051 1376.28 116.348C1373.7 120.606 1370.07 123.951 1365.39 126.384C1360.72 128.818 1354.99 130.034 1348.23 130.034C1341.38 130.034 1335.43 128.437 1330.38 125.244C1325.36 122.012 1321.48 117.45 1318.74 111.557C1316.04 105.664 1314.69 98.707 1314.69 90.6851V84.127C1314.69 76.0671 1316.08 69.1097 1318.86 63.2549C1321.63 57.3621 1325.57 52.7999 1330.66 49.5683C1335.79 46.3368 1341.84 44.721 1348.8 44.721C1355.45 44.721 1361.06 45.9566 1365.62 48.4278C1370.22 50.861 1373.77 54.2446 1376.28 58.5787C1378.83 62.8747 1380.37 67.8171 1380.9 73.4058H1366.25C1365.68 68.1213 1364.1 64.0153 1361.51 61.0879C1358.97 58.1605 1354.73 56.6968 1348.8 56.6968C1344.5 56.6968 1340.93 57.7613 1338.08 59.8903C1335.26 61.9813 1333.13 65.0608 1331.69 69.1288C1330.24 73.1587 1329.52 78.1201 1329.52 84.0129V90.6851C1329.52 96.3119 1330.17 101.178 1331.46 105.284C1332.75 109.352 1334.77 112.508 1337.51 114.751C1340.24 116.956 1343.82 118.058 1348.23 118.058C1352.26 118.058 1355.51 117.431 1357.98 116.176C1360.49 114.922 1362.39 113.097 1363.68 110.702C1364.97 108.269 1365.81 105.284 1366.19 101.748H1380.9ZM1451.15 107.451C1451.15 105.208 1450.67 103.307 1449.72 101.748C1448.81 100.152 1447.08 98.688 1444.53 97.3574C1441.99 95.9887 1438.32 94.563 1433.53 93.0803C1429.61 91.9017 1425.98 90.5521 1422.63 89.0313C1419.33 87.5106 1416.44 85.7618 1413.97 83.7848C1411.49 81.7698 1409.56 79.4507 1408.15 76.8275C1406.78 74.1662 1406.1 71.1057 1406.1 67.646C1406.1 63.1219 1407.35 59.1489 1409.86 55.7273C1412.37 52.2676 1415.85 49.5683 1420.3 47.6294C1424.74 45.6905 1429.9 44.721 1435.75 44.721C1441.99 44.721 1447.35 45.8615 1451.83 48.1426C1456.32 50.3857 1459.76 53.4272 1462.15 57.267C1464.59 61.1069 1465.8 65.3839 1465.8 70.0982H1451.09C1451.09 67.475 1450.52 65.1368 1449.38 63.0838C1448.28 60.9928 1446.59 59.3771 1444.3 58.2365C1442.02 57.0579 1439.11 56.4687 1435.58 56.4687C1432.27 56.4687 1429.52 56.9629 1427.31 57.9514C1425.1 58.9398 1423.47 60.2705 1422.41 61.9433C1421.34 63.6161 1420.81 65.517 1420.81 67.646C1420.81 69.661 1421.46 71.4479 1422.75 73.0066C1424.04 74.5654 1426 75.9911 1428.62 77.2837C1431.24 78.5383 1434.51 79.7549 1438.43 80.9334C1444.59 82.7203 1449.7 84.8113 1453.77 87.2065C1457.84 89.6016 1460.86 92.434 1462.84 95.7036C1464.85 98.9731 1465.86 102.851 1465.86 107.337C1465.86 112.013 1464.64 116.062 1462.21 119.484C1459.78 122.868 1456.34 125.472 1451.89 127.297C1447.44 129.122 1442.21 130.034 1436.21 130.034C1432.21 130.034 1428.28 129.502 1424.4 128.437C1420.52 127.335 1417.01 125.7 1413.85 123.533C1410.73 121.328 1408.22 118.572 1406.32 115.264C1404.46 111.956 1403.53 108.06 1403.53 103.573H1418.24C1418.24 106.235 1418.7 108.497 1419.61 110.36C1420.52 112.223 1421.8 113.762 1423.43 114.979C1425.07 116.157 1426.97 117.013 1429.13 117.545C1431.34 118.077 1433.7 118.343 1436.21 118.343C1439.51 118.343 1442.27 117.887 1444.48 116.975C1446.68 116.024 1448.33 114.732 1449.44 113.097C1450.58 111.462 1451.15 109.58 1451.15 107.451Z" fill="#FD9400"/>
<rect x="0.00012207" y="164.543" width="1485" height="12.3407" fill="#C3C3C3"/>
<path d="M649.48 3.44678L702.55 3.44678C704.172 3.44678 705.488 3.71378 705.488 4.04263C705.767 74.5273 741.227 159.513 799.455 162.914C800.3 163.311 798.81 163.731 796.671 163.731H559.721C557.568 163.731 556.07 163.307 556.933 162.908C610.586 156.349 646.275 74.1063 646.539 4.04205C646.542 3.71379 647.855 3.44678 649.48 3.44678Z" fill="url(#paint0_linear_1_1445)"/>
</g>
<defs>
<linearGradient id="paint0_linear_1_1445" x1="678.166" y1="10.1993" x2="678.166" y2="163.731" gradientUnits="userSpaceOnUse">
<stop stop-color="#1800A7"/>
<stop offset="0.211458" stop-color="#760064"/>
<stop offset="0.482292" stop-color="#F0000A"/>
<stop offset="0.701042" stop-color="#FF6201"/>
<stop offset="1" stop-color="#FFE200"/>
</linearGradient>
<clipPath id="clip0_1_1445">
<rect width="1485" height="176.884" fill="white"/>
</clipPath>
</defs>
</svg>
