<svg width="336" height="40" viewBox="0 0 336 40" fill="none" xmlns="http://www.w3.org/2000/svg">
<g clip-path="url(#clip0_923_114)">
<mask id="mask0_923_114" style="mask-type:luminance" maskUnits="userSpaceOnUse" x="0" y="0" width="336" height="40">
<path d="M336 0H0V39.9738H336V0Z" fill="white"/>
</mask>
<g mask="url(#mask0_923_114)">
<path d="M7.326 22.2079V19.5273H12.1776C13.0206 19.5273 13.6959 19.3941 14.2034 19.1277C14.7195 18.8614 15.098 18.492 15.3389 18.0194C15.5797 17.5469 15.7002 17.0056 15.7002 16.3956C15.7002 15.8113 15.5797 15.2658 15.3389 14.7589C15.098 14.2519 14.7195 13.8396 14.2034 13.5217C13.6959 13.2038 13.0206 13.0448 12.1776 13.0448H8.33244V29.1286H5.00342V10.3642H12.1776C13.64 10.3642 14.883 10.6219 15.9066 11.1375C16.9303 11.653 17.7088 12.3618 18.2421 13.2639C18.784 14.166 19.055 15.2013 19.055 16.3698C19.055 17.5812 18.784 18.6251 18.2421 19.5015C17.7088 20.3692 16.9303 21.0394 15.9066 21.5119C14.883 21.9759 13.64 22.2079 12.1776 22.2079H7.326ZM36.8969 29.1286H27.4776V26.4608H36.8969V29.1286ZM28.4067 29.1286H25.0777V10.3642H28.4067V29.1286ZM44.6487 29.1286H41.152L48.223 10.3642H50.4422L50.2229 13.0319L44.6487 29.1286ZM49.2552 13.0319L49.0099 10.3642H51.2422L58.339 29.1286H54.8423L49.2552 13.0319ZM54.6228 24.8368H44.3908V22.1563H54.6228V24.8368ZM73.4456 24.2827C73.4456 23.7758 73.3381 23.3462 73.1229 22.9939C72.9166 22.6332 72.5252 22.3024 71.9489 22.0017C71.3724 21.6924 70.5424 21.3702 69.4584 21.0351C68.5723 20.7688 67.751 20.4638 66.9939 20.1201C66.2455 19.7764 65.5918 19.3812 65.0327 18.9344C64.4736 18.4791 64.0349 17.955 63.7165 17.3622C63.4068 16.7607 63.252 16.0691 63.252 15.2872C63.252 14.2648 63.536 13.367 64.1037 12.5937C64.6714 11.8119 65.4585 11.2019 66.4649 10.7637C67.4714 10.3255 68.6371 10.1064 69.9616 10.1064C71.3723 10.1064 72.5853 10.3642 73.6004 10.8797C74.6154 11.3866 75.3939 12.0739 75.9358 12.9417C76.4863 13.8095 76.7617 14.776 76.7617 15.8414H73.4327C73.4327 15.2486 73.3035 14.7202 73.0456 14.2562C72.796 13.7837 72.4134 13.4186 71.8971 13.1608C71.381 12.8944 70.723 12.7613 69.9229 12.7613C69.1747 12.7613 68.5509 12.873 68.0519 13.0964C67.553 13.3197 67.1831 13.6205 66.9424 13.9985C66.7014 14.3765 66.581 14.8061 66.581 15.2872C66.581 15.7426 66.7272 16.1464 67.0197 16.4987C67.3123 16.8509 67.7553 17.1731 68.3488 17.4652C68.9423 17.7488 69.6822 18.0237 70.5682 18.29C71.9618 18.6939 73.1186 19.1664 74.0391 19.7077C74.9595 20.249 75.6433 20.889 76.0906 21.6279C76.5465 22.3668 76.7746 23.2432 76.7746 24.257C76.7746 25.3137 76.4992 26.2287 75.9487 27.002C75.3982 27.7668 74.6197 28.3553 73.6133 28.7677C72.6068 29.1801 71.4239 29.3862 70.065 29.3862C69.1618 29.3862 68.2714 29.266 67.394 29.0253C66.5165 28.7763 65.7208 28.4068 65.0069 27.9171C64.3014 27.4188 63.7337 26.7959 63.3036 26.0484C62.8821 25.3008 62.6714 24.4203 62.6714 23.4063H66.0004C66.0004 24.0079 66.1036 24.5191 66.3102 24.9401C66.5165 25.3611 66.8048 25.7089 67.1745 25.984C67.5444 26.2502 67.9746 26.4436 68.4649 26.5638C68.9638 26.6841 69.4971 26.7442 70.065 26.7442C70.8133 26.7442 71.4368 26.6411 71.936 26.435C72.4349 26.2201 72.8089 25.9281 73.0585 25.5586C73.3164 25.1892 73.4456 24.7638 73.4456 24.2827ZM87.1198 10.3642L92.4618 24.6694L97.8037 10.3642H100.771L93.6359 29.1286H91.2875L84.165 10.3642H87.1198ZM85.623 10.3642L86.1134 23.1101V29.1286H82.7972V10.3642H85.623ZM102.139 10.3642V29.1286H98.8101V23.1101L99.3133 10.3642H102.139ZM110.91 29.1286H107.413L114.484 10.3642H116.704L116.484 13.0319L110.91 29.1286ZM115.517 13.0319L115.271 10.3642H117.504L124.6 29.1286H121.104L115.517 13.0319ZM120.884 24.8368H110.652V22.1563H120.884V24.8368ZM180.091 29.1286L180.117 26.4608H184.091C185.244 26.4608 186.208 26.2115 186.982 25.7132C187.756 25.2149 188.341 24.5019 188.737 23.574C189.132 22.6375 189.33 21.5205 189.33 20.2232V19.2437C189.33 17.912 189.132 16.7865 188.737 15.8672C188.349 14.9479 187.773 14.2476 187.007 13.7665C186.242 13.2854 185.309 13.0448 184.207 13.0448H180.014V10.3642H184.207C185.885 10.3642 187.356 10.7336 188.62 11.4725C189.893 12.2114 190.887 13.2467 191.601 14.5784C192.315 15.9102 192.672 17.4738 192.672 19.2695V20.2232C192.672 22.0274 192.315 23.5955 191.601 24.9272C190.887 26.2588 189.885 27.2942 188.595 28.033C187.313 28.7634 185.812 29.1286 184.091 29.1286H180.091ZM181.949 29.1286H178.62V10.3642H181.949V29.1286ZM205.237 19.2051L209.533 10.3642H213.211L206.914 22.2337V29.1286H203.559V22.2337L197.262 10.3642H200.953L205.237 19.2051ZM233.338 29.1286H229.996L221.711 15.9059V29.1286H218.382V10.3642H221.711L230.021 23.6127V10.3642H233.338V29.1286ZM242.133 29.1286H238.637L245.707 10.3642H247.927L247.708 13.0319L242.133 29.1286ZM246.739 13.0319L246.495 10.3642H248.728L255.824 29.1286H252.328L246.739 13.0319ZM252.108 24.8368H241.875V22.1563H252.108V24.8368ZM265.408 10.3642L270.75 24.6694L276.092 10.3642H279.059L271.925 29.1286H269.576L262.453 10.3642H265.408ZM263.91 10.3642L264.401 23.1101V29.1286H261.084V10.3642H263.91ZM280.427 10.3642V29.1286H277.099V23.1101L277.601 10.3642H280.427ZM290.915 29.1286H287.598V10.3642H290.915V29.1286ZM312.446 22.9939C312.344 24.2226 311.996 25.3223 311.401 26.2933C310.817 27.2556 309.995 28.0115 308.937 28.5614C307.88 29.1114 306.583 29.3862 305.054 29.3862C303.504 29.3862 302.158 29.0253 301.015 28.3037C299.879 27.5733 299.001 26.5424 298.381 25.2106C297.77 23.8789 297.465 22.3067 297.465 20.4938V19.0118C297.465 17.1903 297.78 15.618 298.409 14.2949C299.035 12.9632 299.927 11.9322 301.078 11.2019C302.239 10.4716 303.608 10.1064 305.183 10.1064C306.688 10.1064 307.957 10.3857 308.989 10.9441C310.029 11.494 310.833 12.2587 311.401 13.2381C311.978 14.209 312.326 15.3259 312.446 16.5889H309.131C309.002 15.3946 308.645 14.4667 308.059 13.8052C307.484 13.1436 306.525 12.8128 305.183 12.8128C304.21 12.8128 303.402 13.0534 302.757 13.5345C302.119 14.0071 301.637 14.703 301.311 15.6223C300.983 16.533 300.821 17.6543 300.821 18.986V20.4938C300.821 21.7654 300.968 22.8651 301.259 23.793C301.551 24.7123 302.008 25.4255 302.628 25.9324C303.246 26.4307 304.056 26.6798 305.054 26.6798C305.966 26.6798 306.701 26.5381 307.26 26.2545C307.828 25.9711 308.258 25.5586 308.55 25.0174C308.842 24.4676 309.032 23.793 309.118 22.9939H312.446ZM328.341 24.2827C328.341 23.7758 328.232 23.3462 328.017 22.9939C327.811 22.6332 327.42 22.3024 326.843 22.0017C326.268 21.6924 325.438 21.3702 324.354 21.0351C323.467 20.7688 322.646 20.4638 321.888 20.1201C321.141 19.7764 320.487 19.3812 319.928 18.9344C319.367 18.4791 318.931 17.955 318.612 17.3622C318.302 16.7607 318.148 16.0691 318.148 15.2872C318.148 14.2648 318.431 13.367 318.998 12.5937C319.566 11.8119 320.354 11.2019 321.361 10.7637C322.365 10.3255 323.533 10.1064 324.856 10.1064C326.268 10.1064 327.481 10.3642 328.495 10.8797C329.511 11.3866 330.289 12.0739 330.83 12.9417C331.382 13.8095 331.656 14.776 331.656 15.8414H328.327C328.327 15.2486 328.198 14.7202 327.94 14.2562C327.691 13.7837 327.309 13.4186 326.791 13.1608C326.275 12.8944 325.617 12.7613 324.818 12.7613C324.069 12.7613 323.447 12.873 322.947 13.0964C322.447 13.3197 322.078 13.6205 321.838 13.9985C321.596 14.3765 321.476 14.8061 321.476 15.2872C321.476 15.7426 321.623 16.1464 321.915 16.4987C322.207 16.8509 322.65 17.1731 323.243 17.4652C323.836 17.7488 324.576 18.0237 325.463 18.29C326.857 18.6939 328.013 19.1664 328.934 19.7077C329.855 20.249 330.538 20.889 330.986 21.6279C331.441 22.3668 331.669 23.2432 331.669 24.257C331.669 25.3137 331.393 26.2287 330.843 27.002C330.293 27.7668 329.515 28.3553 328.508 28.7677C327.501 29.1801 326.318 29.3862 324.96 29.3862C324.055 29.3862 323.166 29.266 322.288 29.0253C321.41 28.7763 320.616 28.4068 319.901 27.9171C319.195 27.4188 318.627 26.7959 318.197 26.0484C317.777 25.3008 317.566 24.4203 317.566 23.4063H320.895C320.895 24.0079 320.999 24.5191 321.204 24.9401C321.41 25.3611 321.7 25.7089 322.069 25.984C322.44 26.2502 322.87 26.4436 323.359 26.5638C323.859 26.6841 324.393 26.7442 324.96 26.7442C325.707 26.7442 326.332 26.6411 326.832 26.435C327.329 26.2201 327.703 25.9281 327.954 25.5586C328.212 25.1892 328.341 24.7638 328.341 24.2827Z" fill="#FD9400"/>
<path d="M336 37.1849H0V39.9737H336V37.1849Z" fill="#C3C3C3"/>
<path d="M146.953 0.778931H158.961C159.328 0.778931 159.626 0.83927 159.626 0.913586C159.689 16.8423 167.712 36.0481 180.887 36.8167C181.078 36.9064 180.741 37.0014 180.257 37.0014H126.644C126.157 37.0014 125.818 36.9055 126.013 36.8154C138.153 35.3331 146.228 16.7472 146.288 0.913455C146.288 0.839272 146.585 0.778931 146.953 0.778931Z" fill="url(#paint0_linear_923_114)"/>
</g>
</g>
<defs>
<linearGradient id="paint0_linear_923_114" x1="153.444" y1="2.30492" x2="153.444" y2="37.0014" gradientUnits="userSpaceOnUse">
<stop stop-color="#1800A7"/>
<stop offset="0.211458" stop-color="#760064"/>
<stop offset="0.482292" stop-color="#F0000A"/>
<stop offset="0.701042" stop-color="#FF6201"/>
<stop offset="1" stop-color="#FFE200"/>
</linearGradient>
<clipPath id="clip0_923_114">
<rect width="336" height="40" fill="white"/>
</clipPath>
</defs>
</svg>
