<svg width="199" height="190" viewBox="0 0 199 190" fill="none" xmlns="http://www.w3.org/2000/svg">
    <rect width="128.333" height="128.333" transform="matrix(0.866025 0.5 -0.866025 0.5 111.14 102.667)" fill="url(#paint0_linear_656_423)"/>
    <rect width="128.333" height="128.333" transform="matrix(0.866025 0.5 -0.866025 0.5 111.14 77)" fill="url(#paint1_linear_656_423)"/>
    <rect width="128.333" height="128.333" transform="matrix(0.866025 0.5 -0.866025 0.5 111.14 51.333)" fill="url(#paint2_linear_656_423)"/>
    <rect width="128.333" height="128.333" transform="matrix(0.866025 0.5 -0.866025 0.5 111.14 25.667)" fill="url(#paint3_linear_656_423)"/>
    <rect width="128.333" height="128.333" transform="matrix(0.866025 0.5 -0.866025 0.5 111.14 0)" fill="url(#paint4_linear_656_423)"/>
    <defs>
        <linearGradient id="paint0_linear_656_423" x1="143.436" y1="142.106" x2="27.9358" y2="142.106" gradientUnits="userSpaceOnUse">
            <stop stop-color="#F7F7F7" stop-opacity="0.85"/>
            <stop offset="1" stop-color="#3F3F3F" stop-opacity="0.83"/>
        </linearGradient>
        <linearGradient id="paint1_linear_656_423" x1="141.832" y1="140.502" x2="8.24714" y2="145.837" gradientUnits="userSpaceOnUse">
            <stop stop-color="white"/>
            <stop offset="1" stop-color="#3F3F3F"/>
        </linearGradient>
        <linearGradient id="paint2_linear_656_423" x1="138.623" y1="137.293" x2="8.24672" y2="142.623" gradientUnits="userSpaceOnUse">
            <stop stop-color="white"/>
            <stop offset="1" stop-color="#3F3F3F"/>
        </linearGradient>
        <linearGradient id="paint3_linear_656_423" x1="141.584" y1="143.958" x2="4.551" y2="145.786" gradientUnits="userSpaceOnUse">
            <stop stop-color="white"/>
            <stop offset="1" stop-color="#3F3F3F"/>
        </linearGradient>
        <linearGradient id="paint4_linear_656_423" x1="128.998" y1="127.668" x2="-0.0133694" y2="129.494" gradientUnits="userSpaceOnUse">
            <stop stop-color="white"/>
            <stop offset="1" stop-color="#3F3F3F"/>
        </linearGradient>
    </defs>
</svg>
