<svg width="165" height="193" viewBox="0 0 165 193" fill="none" xmlns="http://www.w3.org/2000/svg">
    <rect x="0.00390625" y="127.451" width="180.235" height="2.25294" transform="rotate(-45 0.00390625 127.451)" fill="url(#paint0_linear_656_433)"/>
    <rect x="3.19043" y="130.636" width="180.235" height="2.25294" transform="rotate(-45 3.19043 130.636)" fill="url(#paint1_linear_656_433)"/>
    <rect x="6.37598" y="133.82" width="180.235" height="2.25294" transform="rotate(-45 6.37598 133.82)" fill="url(#paint2_linear_656_433)"/>
    <rect x="9.5625" y="137.007" width="180.235" height="2.25294" transform="rotate(-45 9.5625 137.007)" fill="url(#paint3_linear_656_433)"/>
    <rect x="12.749" y="140.193" width="180.235" height="2.25294" transform="rotate(-45 12.749 140.193)" fill="url(#paint4_linear_656_433)"/>
    <rect x="15.9355" y="143.381" width="180.235" height="2.25294" transform="rotate(-45 15.9355 143.381)" fill="url(#paint5_linear_656_433)"/>
    <rect x="19.1211" y="146.567" width="180.235" height="2.25294" transform="rotate(-45 19.1211 146.567)" fill="url(#paint6_linear_656_433)"/>
    <rect x="22.3076" y="149.752" width="180.235" height="2.25294" transform="rotate(-45 22.3076 149.752)" fill="url(#paint7_linear_656_433)"/>
    <rect x="25.4941" y="152.938" width="180.235" height="2.25294" transform="rotate(-45 25.4941 152.938)" fill="url(#paint8_linear_656_433)"/>
    <rect x="28.6807" y="156.125" width="180.235" height="2.25294" transform="rotate(-45 28.6807 156.125)" fill="url(#paint9_linear_656_433)"/>
    <rect x="31.8662" y="159.312" width="180.235" height="2.25294" transform="rotate(-45 31.8662 159.312)" fill="url(#paint10_linear_656_433)"/>
    <rect x="35.0527" y="162.497" width="180.235" height="2.25294" transform="rotate(-45 35.0527 162.497)" fill="url(#paint11_linear_656_433)"/>
    <rect x="38.2393" y="165.683" width="180.235" height="2.25294" transform="rotate(-45 38.2393 165.683)" fill="url(#paint12_linear_656_433)"/>
    <rect x="41.4258" y="168.868" width="180.235" height="2.25294" transform="rotate(-45 41.4258 168.868)" fill="url(#paint13_linear_656_433)"/>
    <rect x="44.6113" y="172.056" width="180.235" height="2.25294" transform="rotate(-45 44.6113 172.056)" fill="url(#paint14_linear_656_433)"/>
    <rect x="47.7979" y="175.24" width="180.235" height="2.25294" transform="rotate(-45 47.7979 175.24)" fill="url(#paint15_linear_656_433)"/>
    <rect x="50.9844" y="178.428" width="180.235" height="2.25294" transform="rotate(-45 50.9844 178.428)" fill="url(#paint16_linear_656_433)"/>
    <rect x="54.1709" y="181.616" width="180.235" height="2.25294" transform="rotate(-45 54.1709 181.616)" fill="url(#paint17_linear_656_433)"/>
    <rect x="57.3564" y="184.801" width="180.235" height="2.25294" transform="rotate(-45 57.3564 184.801)" fill="url(#paint18_linear_656_433)"/>
    <rect x="60.54" y="187.987" width="180.235" height="2.25294" transform="rotate(-45 60.54 187.987)" fill="url(#paint19_linear_656_433)"/>
    <rect x="63.7266" y="191.173" width="180.235" height="2.25294" transform="rotate(-45 63.7266 191.173)" fill="url(#paint20_linear_656_433)"/>
    <rect x="66.9121" y="194.358" width="180.235" height="2.25294" transform="rotate(-45 66.9121 194.358)" fill="url(#paint21_linear_656_433)"/>
    <rect x="70.0986" y="197.546" width="180.235" height="2.25294" transform="rotate(-45 70.0986 197.546)" fill="url(#paint22_linear_656_433)"/>
    <rect x="73.2852" y="200.732" width="180.235" height="2.25294" transform="rotate(-45 73.2852 200.732)" fill="url(#paint23_linear_656_433)"/>
    <rect x="76.4707" y="203.917" width="180.235" height="2.25294" transform="rotate(-45 76.4707 203.917)" fill="url(#paint24_linear_656_433)"/>
    <rect x="79.6572" y="207.103" width="180.235" height="2.25294" transform="rotate(-45 79.6572 207.103)" fill="url(#paint25_linear_656_433)"/>
    <rect x="82.8438" y="210.29" width="180.235" height="2.25294" transform="rotate(-45 82.8438 210.29)" fill="url(#paint26_linear_656_433)"/>
    <rect x="86.0303" y="213.477" width="180.235" height="2.25294" transform="rotate(-45 86.0303 213.477)" fill="url(#paint27_linear_656_433)"/>
    <rect x="89.2158" y="216.662" width="180.235" height="2.25294" transform="rotate(-45 89.2158 216.662)" fill="url(#paint28_linear_656_433)"/>
    <rect x="92.4023" y="219.848" width="180.235" height="2.25294" transform="rotate(-45 92.4023 219.848)" fill="url(#paint29_linear_656_433)"/>
    <rect x="95.5889" y="223.036" width="180.235" height="2.25294" transform="rotate(-45 95.5889 223.036)" fill="url(#paint30_linear_656_433)"/>
    <rect x="98.7754" y="226.219" width="180.235" height="2.25294" transform="rotate(-45 98.7754 226.219)" fill="url(#paint31_linear_656_433)"/>
    <rect x="101.961" y="229.407" width="180.235" height="2.25294" transform="rotate(-45 101.961 229.407)" fill="url(#paint32_linear_656_433)"/>
    <rect x="127.448" y="230.999" width="180.235" height="2.25294" transform="rotate(-135 127.448 230.999)" fill="url(#paint33_linear_656_433)"/>
    <rect x="130.635" y="227.811" width="180.235" height="2.25294" transform="rotate(-135 130.635 227.811)" fill="url(#paint34_linear_656_433)"/>
    <rect x="133.82" y="224.626" width="180.235" height="2.25294" transform="rotate(-135 133.82 224.626)" fill="url(#paint35_linear_656_433)"/>
    <rect x="137.007" y="221.438" width="180.235" height="2.25294" transform="rotate(-135 137.007 221.438)" fill="url(#paint36_linear_656_433)"/>
    <rect x="140.193" y="218.252" width="180.235" height="2.25294" transform="rotate(-135 140.193 218.252)" fill="url(#paint37_linear_656_433)"/>
    <rect x="143.376" y="215.067" width="180.235" height="2.25294" transform="rotate(-135 143.376 215.067)" fill="url(#paint38_linear_656_433)"/>
    <rect x="146.565" y="211.881" width="180.235" height="2.25294" transform="rotate(-135 146.565 211.881)" fill="url(#paint39_linear_656_433)"/>
    <rect x="149.752" y="208.695" width="180.235" height="2.25294" transform="rotate(-135 149.752 208.695)" fill="url(#paint40_linear_656_433)"/>
    <rect x="152.938" y="205.507" width="180.235" height="2.25294" transform="rotate(-135 152.938 205.507)" fill="url(#paint41_linear_656_433)"/>
    <rect x="156.125" y="202.322" width="180.235" height="2.25294" transform="rotate(-135 156.125 202.322)" fill="url(#paint42_linear_656_433)"/>
    <rect x="159.308" y="199.136" width="180.235" height="2.25294" transform="rotate(-135 159.308 199.136)" fill="url(#paint43_linear_656_433)"/>
    <rect x="162.494" y="195.95" width="180.235" height="2.25294" transform="rotate(-135 162.494 195.95)" fill="url(#paint44_linear_656_433)"/>
    <rect x="165.681" y="192.765" width="180.235" height="2.25294" transform="rotate(-135 165.681 192.765)" fill="url(#paint45_linear_656_433)"/>
    <rect x="168.87" y="189.575" width="180.235" height="2.25294" transform="rotate(-135 168.87 189.575)" fill="url(#paint46_linear_656_433)"/>
    <rect x="172.053" y="186.391" width="180.235" height="2.25294" transform="rotate(-135 172.053 186.391)" fill="url(#paint47_linear_656_433)"/>
    <rect x="175.239" y="183.206" width="180.235" height="2.25294" transform="rotate(-135 175.239 183.206)" fill="url(#paint48_linear_656_433)"/>
    <rect x="178.426" y="180.02" width="180.235" height="2.25294" transform="rotate(-135 178.426 180.02)" fill="url(#paint49_linear_656_433)"/>
    <rect x="181.611" y="176.832" width="180.235" height="2.25294" transform="rotate(-135 181.611 176.832)" fill="url(#paint50_linear_656_433)"/>
    <rect x="184.798" y="173.644" width="180.235" height="2.25294" transform="rotate(-135 184.798 173.644)" fill="url(#paint51_linear_656_433)"/>
    <rect x="187.984" y="170.462" width="180.235" height="2.25294" transform="rotate(-135 187.984 170.462)" fill="url(#paint52_linear_656_433)"/>
    <rect x="191.171" y="167.275" width="180.235" height="2.25294" transform="rotate(-135 191.171 167.275)" fill="url(#paint53_linear_656_433)"/>
    <rect x="194.356" y="164.087" width="180.235" height="2.25294" transform="rotate(-135 194.356 164.087)" fill="url(#paint54_linear_656_433)"/>
    <rect x="197.543" y="160.9" width="180.235" height="2.25294" transform="rotate(-135 197.543 160.9)" fill="url(#paint55_linear_656_433)"/>
    <rect x="200.729" y="157.714" width="180.235" height="2.25294" transform="rotate(-135 200.729 157.714)" fill="url(#paint56_linear_656_433)"/>
    <rect x="203.916" y="154.53" width="180.235" height="2.25294" transform="rotate(-135 203.916 154.53)" fill="url(#paint57_linear_656_433)"/>
    <rect x="207.102" y="151.345" width="180.235" height="2.25294" transform="rotate(-135 207.102 151.345)" fill="url(#paint58_linear_656_433)"/>
    <rect x="210.288" y="148.157" width="180.235" height="2.25294" transform="rotate(-135 210.288 148.157)" fill="url(#paint59_linear_656_433)"/>
    <rect x="213.475" y="144.971" width="180.235" height="2.25294" transform="rotate(-135 213.475 144.971)" fill="url(#paint60_linear_656_433)"/>
    <rect x="216.66" y="141.783" width="180.235" height="2.25294" transform="rotate(-135 216.66 141.783)" fill="url(#paint61_linear_656_433)"/>
    <rect x="219.847" y="138.6" width="180.235" height="2.25294" transform="rotate(-135 219.847 138.6)" fill="url(#paint62_linear_656_433)"/>
    <rect x="223.033" y="135.412" width="180.235" height="2.25294" transform="rotate(-135 223.033 135.412)" fill="url(#paint63_linear_656_433)"/>
    <rect x="226.22" y="132.226" width="180.235" height="2.25294" transform="rotate(-135 226.22 132.226)" fill="url(#paint64_linear_656_433)"/>
    <rect x="229.405" y="129.041" width="180.235" height="2.25294" transform="rotate(-135 229.405 129.041)" fill="url(#paint65_linear_656_433)"/>
    <defs>
        <linearGradient id="paint0_linear_656_433" x1="5.63627" y1="127.469" x2="5.73623" y2="132.862" gradientUnits="userSpaceOnUse">
            <stop stop-color="white"/>
            <stop offset="1" stop-color="white" stop-opacity="0"/>
        </linearGradient>
        <linearGradient id="paint1_linear_656_433" x1="8.82279" y1="130.653" x2="8.92275" y2="136.047" gradientUnits="userSpaceOnUse">
            <stop stop-color="white"/>
            <stop offset="1" stop-color="white" stop-opacity="0"/>
        </linearGradient>
        <linearGradient id="paint2_linear_656_433" x1="12.0083" y1="133.838" x2="12.1083" y2="139.231" gradientUnits="userSpaceOnUse">
            <stop stop-color="white"/>
            <stop offset="1" stop-color="white" stop-opacity="0"/>
        </linearGradient>
        <linearGradient id="paint3_linear_656_433" x1="15.1949" y1="137.024" x2="15.2948" y2="142.418" gradientUnits="userSpaceOnUse">
            <stop stop-color="white"/>
            <stop offset="1" stop-color="white" stop-opacity="0"/>
        </linearGradient>
        <linearGradient id="paint4_linear_656_433" x1="18.3814" y1="140.21" x2="18.4813" y2="145.604" gradientUnits="userSpaceOnUse">
            <stop stop-color="white"/>
            <stop offset="1" stop-color="white" stop-opacity="0"/>
        </linearGradient>
        <linearGradient id="paint5_linear_656_433" x1="21.5679" y1="143.398" x2="21.6679" y2="148.792" gradientUnits="userSpaceOnUse">
            <stop stop-color="white"/>
            <stop offset="1" stop-color="white" stop-opacity="0"/>
        </linearGradient>
        <linearGradient id="paint6_linear_656_433" x1="24.7535" y1="146.585" x2="24.8534" y2="151.978" gradientUnits="userSpaceOnUse">
            <stop stop-color="white"/>
            <stop offset="1" stop-color="white" stop-opacity="0"/>
        </linearGradient>
        <linearGradient id="paint7_linear_656_433" x1="27.94" y1="149.769" x2="28.0399" y2="155.163" gradientUnits="userSpaceOnUse">
            <stop stop-color="white"/>
            <stop offset="1" stop-color="white" stop-opacity="0"/>
        </linearGradient>
        <linearGradient id="paint8_linear_656_433" x1="31.1265" y1="152.955" x2="31.2265" y2="158.349" gradientUnits="userSpaceOnUse">
            <stop stop-color="white"/>
            <stop offset="1" stop-color="white" stop-opacity="0"/>
        </linearGradient>
        <linearGradient id="paint9_linear_656_433" x1="34.313" y1="156.142" x2="34.413" y2="161.535" gradientUnits="userSpaceOnUse">
            <stop stop-color="white"/>
            <stop offset="1" stop-color="white" stop-opacity="0"/>
        </linearGradient>
        <linearGradient id="paint10_linear_656_433" x1="37.4986" y1="159.33" x2="37.5985" y2="164.723" gradientUnits="userSpaceOnUse">
            <stop stop-color="white"/>
            <stop offset="1" stop-color="white" stop-opacity="0"/>
        </linearGradient>
        <linearGradient id="paint11_linear_656_433" x1="40.6851" y1="162.514" x2="40.7851" y2="167.908" gradientUnits="userSpaceOnUse">
            <stop stop-color="white"/>
            <stop offset="1" stop-color="white" stop-opacity="0"/>
        </linearGradient>
        <linearGradient id="paint12_linear_656_433" x1="43.8716" y1="165.7" x2="43.9716" y2="171.094" gradientUnits="userSpaceOnUse">
            <stop stop-color="white"/>
            <stop offset="1" stop-color="white" stop-opacity="0"/>
        </linearGradient>
        <linearGradient id="paint13_linear_656_433" x1="47.0581" y1="168.885" x2="47.1581" y2="174.278" gradientUnits="userSpaceOnUse">
            <stop stop-color="white"/>
            <stop offset="1" stop-color="white" stop-opacity="0"/>
        </linearGradient>
        <linearGradient id="paint14_linear_656_433" x1="50.2437" y1="172.073" x2="50.3437" y2="177.466" gradientUnits="userSpaceOnUse">
            <stop stop-color="white"/>
            <stop offset="1" stop-color="white" stop-opacity="0"/>
        </linearGradient>
        <linearGradient id="paint15_linear_656_433" x1="53.4302" y1="175.258" x2="53.5302" y2="180.651" gradientUnits="userSpaceOnUse">
            <stop stop-color="white"/>
            <stop offset="1" stop-color="white" stop-opacity="0"/>
        </linearGradient>
        <linearGradient id="paint16_linear_656_433" x1="56.6167" y1="178.446" x2="56.7167" y2="183.839" gradientUnits="userSpaceOnUse">
            <stop stop-color="white"/>
            <stop offset="1" stop-color="white" stop-opacity="0"/>
        </linearGradient>
        <linearGradient id="paint17_linear_656_433" x1="59.8033" y1="181.634" x2="59.9032" y2="187.027" gradientUnits="userSpaceOnUse">
            <stop stop-color="white"/>
            <stop offset="1" stop-color="white" stop-opacity="0"/>
        </linearGradient>
        <linearGradient id="paint18_linear_656_433" x1="62.9888" y1="184.818" x2="63.0888" y2="190.212" gradientUnits="userSpaceOnUse">
            <stop stop-color="white"/>
            <stop offset="1" stop-color="white" stop-opacity="0"/>
        </linearGradient>
        <linearGradient id="paint19_linear_656_433" x1="66.1724" y1="188.005" x2="66.2724" y2="193.398" gradientUnits="userSpaceOnUse">
            <stop stop-color="white"/>
            <stop offset="1" stop-color="white" stop-opacity="0"/>
        </linearGradient>
        <linearGradient id="paint20_linear_656_433" x1="69.3589" y1="191.191" x2="69.4589" y2="196.584" gradientUnits="userSpaceOnUse">
            <stop stop-color="white"/>
            <stop offset="1" stop-color="white" stop-opacity="0"/>
        </linearGradient>
        <linearGradient id="paint21_linear_656_433" x1="72.5445" y1="194.375" x2="72.6444" y2="199.769" gradientUnits="userSpaceOnUse">
            <stop stop-color="white"/>
            <stop offset="1" stop-color="white" stop-opacity="0"/>
        </linearGradient>
        <linearGradient id="paint22_linear_656_433" x1="75.731" y1="197.563" x2="75.831" y2="202.957" gradientUnits="userSpaceOnUse">
            <stop stop-color="white"/>
            <stop offset="1" stop-color="white" stop-opacity="0"/>
        </linearGradient>
        <linearGradient id="paint23_linear_656_433" x1="78.9175" y1="200.75" x2="79.0175" y2="206.143" gradientUnits="userSpaceOnUse">
            <stop stop-color="white"/>
            <stop offset="1" stop-color="white" stop-opacity="0"/>
        </linearGradient>
        <linearGradient id="paint24_linear_656_433" x1="82.1031" y1="203.934" x2="82.203" y2="209.328" gradientUnits="userSpaceOnUse">
            <stop stop-color="white"/>
            <stop offset="1" stop-color="white" stop-opacity="0"/>
        </linearGradient>
        <linearGradient id="paint25_linear_656_433" x1="85.2896" y1="207.12" x2="85.3896" y2="212.514" gradientUnits="userSpaceOnUse">
            <stop stop-color="white"/>
            <stop offset="1" stop-color="white" stop-opacity="0"/>
        </linearGradient>
        <linearGradient id="paint26_linear_656_433" x1="88.4761" y1="210.307" x2="88.5761" y2="215.7" gradientUnits="userSpaceOnUse">
            <stop stop-color="white"/>
            <stop offset="1" stop-color="white" stop-opacity="0"/>
        </linearGradient>
        <linearGradient id="paint27_linear_656_433" x1="91.6626" y1="213.494" x2="91.7626" y2="218.888" gradientUnits="userSpaceOnUse">
            <stop stop-color="white"/>
            <stop offset="1" stop-color="white" stop-opacity="0"/>
        </linearGradient>
        <linearGradient id="paint28_linear_656_433" x1="94.8482" y1="216.679" x2="94.9481" y2="222.073" gradientUnits="userSpaceOnUse">
            <stop stop-color="white"/>
            <stop offset="1" stop-color="white" stop-opacity="0"/>
        </linearGradient>
        <linearGradient id="paint29_linear_656_433" x1="98.0347" y1="219.865" x2="98.1347" y2="225.259" gradientUnits="userSpaceOnUse">
            <stop stop-color="white"/>
            <stop offset="1" stop-color="white" stop-opacity="0"/>
        </linearGradient>
        <linearGradient id="paint30_linear_656_433" x1="101.221" y1="223.053" x2="101.321" y2="228.447" gradientUnits="userSpaceOnUse">
            <stop stop-color="white"/>
            <stop offset="1" stop-color="white" stop-opacity="0"/>
        </linearGradient>
        <linearGradient id="paint31_linear_656_433" x1="104.408" y1="226.237" x2="104.508" y2="231.63" gradientUnits="userSpaceOnUse">
            <stop stop-color="white"/>
            <stop offset="1" stop-color="white" stop-opacity="0"/>
        </linearGradient>
        <linearGradient id="paint32_linear_656_433" x1="107.593" y1="229.425" x2="107.693" y2="234.818" gradientUnits="userSpaceOnUse">
            <stop stop-color="white"/>
            <stop offset="1" stop-color="white" stop-opacity="0"/>
        </linearGradient>
        <linearGradient id="paint33_linear_656_433" x1="305.431" y1="230.999" x2="305.377" y2="235.104" gradientUnits="userSpaceOnUse">
            <stop stop-color="white"/>
            <stop offset="1" stop-color="white" stop-opacity="0"/>
        </linearGradient>
        <linearGradient id="paint34_linear_656_433" x1="308.617" y1="227.811" x2="308.563" y2="231.916" gradientUnits="userSpaceOnUse">
            <stop stop-color="white"/>
            <stop offset="1" stop-color="white" stop-opacity="0"/>
        </linearGradient>
        <linearGradient id="paint35_linear_656_433" x1="311.803" y1="224.626" x2="311.749" y2="228.731" gradientUnits="userSpaceOnUse">
            <stop stop-color="white"/>
            <stop offset="1" stop-color="white" stop-opacity="0"/>
        </linearGradient>
        <linearGradient id="paint36_linear_656_433" x1="314.989" y1="221.438" x2="314.935" y2="225.543" gradientUnits="userSpaceOnUse">
            <stop stop-color="white"/>
            <stop offset="1" stop-color="white" stop-opacity="0"/>
        </linearGradient>
        <linearGradient id="paint37_linear_656_433" x1="318.176" y1="218.252" x2="318.122" y2="222.357" gradientUnits="userSpaceOnUse">
            <stop stop-color="white"/>
            <stop offset="1" stop-color="white" stop-opacity="0"/>
        </linearGradient>
        <linearGradient id="paint38_linear_656_433" x1="321.359" y1="215.067" x2="321.305" y2="219.173" gradientUnits="userSpaceOnUse">
            <stop stop-color="white"/>
            <stop offset="1" stop-color="white" stop-opacity="0"/>
        </linearGradient>
        <linearGradient id="paint39_linear_656_433" x1="324.548" y1="211.881" x2="324.494" y2="215.986" gradientUnits="userSpaceOnUse">
            <stop stop-color="white"/>
            <stop offset="1" stop-color="white" stop-opacity="0"/>
        </linearGradient>
        <linearGradient id="paint40_linear_656_433" x1="327.734" y1="208.695" x2="327.681" y2="212.8" gradientUnits="userSpaceOnUse">
            <stop stop-color="white"/>
            <stop offset="1" stop-color="white" stop-opacity="0"/>
        </linearGradient>
        <linearGradient id="paint41_linear_656_433" x1="330.921" y1="205.507" x2="330.867" y2="209.612" gradientUnits="userSpaceOnUse">
            <stop stop-color="white"/>
            <stop offset="1" stop-color="white" stop-opacity="0"/>
        </linearGradient>
        <linearGradient id="paint42_linear_656_433" x1="334.108" y1="202.322" x2="334.054" y2="206.427" gradientUnits="userSpaceOnUse">
            <stop stop-color="white"/>
            <stop offset="1" stop-color="white" stop-opacity="0"/>
        </linearGradient>
        <linearGradient id="paint43_linear_656_433" x1="337.29" y1="199.136" x2="337.236" y2="203.241" gradientUnits="userSpaceOnUse">
            <stop stop-color="white"/>
            <stop offset="1" stop-color="white" stop-opacity="0"/>
        </linearGradient>
        <linearGradient id="paint44_linear_656_433" x1="340.477" y1="195.95" x2="340.423" y2="200.055" gradientUnits="userSpaceOnUse">
            <stop stop-color="white"/>
            <stop offset="1" stop-color="white" stop-opacity="0"/>
        </linearGradient>
        <linearGradient id="paint45_linear_656_433" x1="343.663" y1="192.765" x2="343.609" y2="196.87" gradientUnits="userSpaceOnUse">
            <stop stop-color="white"/>
            <stop offset="1" stop-color="white" stop-opacity="0"/>
        </linearGradient>
        <linearGradient id="paint46_linear_656_433" x1="346.853" y1="189.575" x2="346.799" y2="193.68" gradientUnits="userSpaceOnUse">
            <stop stop-color="white"/>
            <stop offset="1" stop-color="white" stop-opacity="0"/>
        </linearGradient>
        <linearGradient id="paint47_linear_656_433" x1="350.035" y1="186.391" x2="349.981" y2="190.496" gradientUnits="userSpaceOnUse">
            <stop stop-color="white"/>
            <stop offset="1" stop-color="white" stop-opacity="0"/>
        </linearGradient>
        <linearGradient id="paint48_linear_656_433" x1="353.222" y1="183.206" x2="353.168" y2="187.311" gradientUnits="userSpaceOnUse">
            <stop stop-color="white"/>
            <stop offset="1" stop-color="white" stop-opacity="0"/>
        </linearGradient>
        <linearGradient id="paint49_linear_656_433" x1="356.408" y1="180.02" x2="356.354" y2="184.125" gradientUnits="userSpaceOnUse">
            <stop stop-color="white"/>
            <stop offset="1" stop-color="white" stop-opacity="0"/>
        </linearGradient>
        <linearGradient id="paint50_linear_656_433" x1="359.594" y1="176.832" x2="359.54" y2="180.937" gradientUnits="userSpaceOnUse">
            <stop stop-color="white"/>
            <stop offset="1" stop-color="white" stop-opacity="0"/>
        </linearGradient>
        <linearGradient id="paint51_linear_656_433" x1="362.78" y1="173.644" x2="362.726" y2="177.749" gradientUnits="userSpaceOnUse">
            <stop stop-color="white"/>
            <stop offset="1" stop-color="white" stop-opacity="0"/>
        </linearGradient>
        <linearGradient id="paint52_linear_656_433" x1="365.967" y1="170.462" x2="365.913" y2="174.568" gradientUnits="userSpaceOnUse">
            <stop stop-color="white"/>
            <stop offset="1" stop-color="white" stop-opacity="0"/>
        </linearGradient>
        <linearGradient id="paint53_linear_656_433" x1="369.153" y1="167.275" x2="369.099" y2="171.38" gradientUnits="userSpaceOnUse">
            <stop stop-color="white"/>
            <stop offset="1" stop-color="white" stop-opacity="0"/>
        </linearGradient>
        <linearGradient id="paint54_linear_656_433" x1="372.339" y1="164.087" x2="372.285" y2="168.192" gradientUnits="userSpaceOnUse">
            <stop stop-color="white"/>
            <stop offset="1" stop-color="white" stop-opacity="0"/>
        </linearGradient>
        <linearGradient id="paint55_linear_656_433" x1="375.526" y1="160.9" x2="375.472" y2="165.006" gradientUnits="userSpaceOnUse">
            <stop stop-color="white"/>
            <stop offset="1" stop-color="white" stop-opacity="0"/>
        </linearGradient>
        <linearGradient id="paint56_linear_656_433" x1="378.712" y1="157.714" x2="378.658" y2="161.82" gradientUnits="userSpaceOnUse">
            <stop stop-color="white"/>
            <stop offset="1" stop-color="white" stop-opacity="0"/>
        </linearGradient>
        <linearGradient id="paint57_linear_656_433" x1="381.899" y1="154.53" x2="381.845" y2="158.635" gradientUnits="userSpaceOnUse">
            <stop stop-color="white"/>
            <stop offset="1" stop-color="white" stop-opacity="0"/>
        </linearGradient>
        <linearGradient id="paint58_linear_656_433" x1="385.084" y1="151.345" x2="385.03" y2="155.45" gradientUnits="userSpaceOnUse">
            <stop stop-color="white"/>
            <stop offset="1" stop-color="white" stop-opacity="0"/>
        </linearGradient>
        <linearGradient id="paint59_linear_656_433" x1="388.271" y1="148.157" x2="388.217" y2="152.262" gradientUnits="userSpaceOnUse">
            <stop stop-color="white"/>
            <stop offset="1" stop-color="white" stop-opacity="0"/>
        </linearGradient>
        <linearGradient id="paint60_linear_656_433" x1="391.457" y1="144.971" x2="391.403" y2="149.076" gradientUnits="userSpaceOnUse">
            <stop stop-color="white"/>
            <stop offset="1" stop-color="white" stop-opacity="0"/>
        </linearGradient>
        <linearGradient id="paint61_linear_656_433" x1="394.643" y1="141.783" x2="394.589" y2="145.888" gradientUnits="userSpaceOnUse">
            <stop stop-color="white"/>
            <stop offset="1" stop-color="white" stop-opacity="0"/>
        </linearGradient>
        <linearGradient id="paint62_linear_656_433" x1="397.829" y1="138.6" x2="397.775" y2="142.705" gradientUnits="userSpaceOnUse">
            <stop stop-color="white"/>
            <stop offset="1" stop-color="white" stop-opacity="0"/>
        </linearGradient>
        <linearGradient id="paint63_linear_656_433" x1="401.016" y1="135.412" x2="400.962" y2="139.517" gradientUnits="userSpaceOnUse">
            <stop stop-color="white"/>
            <stop offset="1" stop-color="white" stop-opacity="0"/>
        </linearGradient>
        <linearGradient id="paint64_linear_656_433" x1="404.202" y1="132.226" x2="404.148" y2="136.331" gradientUnits="userSpaceOnUse">
            <stop stop-color="white"/>
            <stop offset="1" stop-color="white" stop-opacity="0"/>
        </linearGradient>
        <linearGradient id="paint65_linear_656_433" x1="407.388" y1="129.041" x2="407.334" y2="133.146" gradientUnits="userSpaceOnUse">
            <stop stop-color="white"/>
            <stop offset="1" stop-color="white" stop-opacity="0"/>
        </linearGradient>
    </defs>
</svg>
