<svg width="20" height="20" viewBox="0 0 20 20" fill="none" xmlns="http://www.w3.org/2000/svg">
<g clip-path="url(#clip0_350_76)">
<path d="M10 20C15.5228 20 20 15.5228 20 10C20 4.47715 15.5228 0 10 0C4.47715 0 0 4.47715 0 10C0 15.5228 4.47715 20 10 20Z" fill="#FFA500"/>
<path d="M8.13798 15.4148L8.22865 15.5055L8.40542 15.3287L16.8908 6.84341L17.0675 6.66663L16.8907 6.48985L15.4765 5.07566L15.2997 4.89889L15.1229 5.07567L8.13804 12.0606L4.9243 8.84692L4.74753 8.67015L4.57075 8.84692L3.15654 10.2611L2.97976 10.4379L3.15654 10.6147L7.8706 15.3287L8.04732 15.5054L8.13798 15.4148Z" fill="#303030" stroke="#303030" stroke-width="0.5"/>
</g>
<defs>
<clipPath id="clip0_350_76">
<rect width="20" height="20" fill="white"/>
</clipPath>
</defs>
</svg>
