<svg width="187" height="103" viewBox="0 0 187 103" fill="none" xmlns="http://www.w3.org/2000/svg">
<path d="M85.9077 0.183731C96.1308 -0.338484 106.427 0.237825 116.5 2.10823C125.181 3.74353 133.742 6.32548 141.615 10.3888C147.402 13.4201 152.907 17.3107 156.857 22.5974C159.394 25.997 161.167 30.0478 161.507 34.3066C161.897 38.5863 160.779 42.9284 158.657 46.638C155.434 52.2637 150.294 56.5122 144.81 59.8161C137.16 64.3496 128.648 67.2415 120 69.1619C110.541 71.2382 100.832 72.0933 91.1552 71.981C81.9077 71.8249 72.6497 70.8096 63.6554 68.6105C57.9325 67.2228 52.3176 65.3441 46.9745 62.8558C40.8012 59.9368 34.8749 56.1668 30.4016 50.9301C26.9932 46.9542 24.5977 41.9235 24.4732 36.6202C24.2677 31.5041 26.2148 26.49 29.2786 22.458C33.2018 17.2837 38.6092 13.4451 44.3051 10.447C52.0394 6.43783 60.4484 3.8642 68.9798 2.21434C74.5657 1.14286 80.2284 0.485409 85.9077 0.183731ZM89.9741 7.36158C81.8558 7.5634 73.7416 8.51628 65.835 10.3992C58.3456 12.2092 50.9642 14.8099 44.3695 18.8586C41.2828 20.7852 38.3476 23.0301 35.9875 25.8201C34.1214 28.0338 32.5936 30.6178 32.029 33.489C31.4 36.539 31.9999 39.7597 33.4717 42.4831C35.7509 46.7441 39.5184 49.971 43.508 52.5779C49.4053 56.3707 56.0062 58.936 62.74 60.7919C71.9274 63.3072 81.451 64.464 90.9601 64.645C100.679 64.7823 110.437 63.8794 119.909 61.6553C127.888 59.7474 135.761 56.9595 142.684 52.478C146.095 50.229 149.304 47.5368 151.595 44.1143C153.443 41.3846 154.56 38.0433 154.19 34.7227C153.941 32.1033 152.83 29.6337 151.336 27.4949C149.102 24.2909 146.057 21.7506 142.829 19.6014C136.212 15.278 128.7 12.5317 121.075 10.6072C110.921 8.10225 100.419 7.13689 89.9741 7.36158ZM92.8843 10.5261C99.8112 10.3596 106.744 11.04 113.538 12.384C113.54 14.708 113.532 17.034 113.542 19.36C111.413 18.9835 109.246 18.9002 107.099 18.6589C107.108 32.5652 107.099 46.4736 107.103 60.3799C104.658 60.5963 102.209 60.769 99.7717 61.0498C99.6887 46.6713 99.7551 32.2906 99.7365 17.9099C97.4573 17.7414 95.1698 17.6873 92.8843 17.6894C92.8864 15.303 92.8843 12.9145 92.8843 10.5261ZM72.9507 12.2134C76.6041 11.5913 80.4526 11.9512 83.89 13.3639C87.4313 14.7995 90.3934 17.7476 91.5891 21.4156C92.5356 24.3221 92.7183 27.6135 91.4728 30.4597C90.5699 32.5881 88.9694 34.3316 87.2279 35.8088C89.889 37.8976 91.8278 40.9477 92.4194 44.2994C92.9466 47.387 92.2201 50.6326 90.5346 53.2603C87.9191 57.4068 83.1718 60.0221 78.3062 60.2447C76.6373 60.4028 74.985 60.0387 73.3451 59.7828C70.9082 59.3604 68.4795 58.8819 66.055 58.3909C66.6632 56.0878 67.259 53.7804 67.8547 51.4731C70.5594 51.8934 73.2621 52.3366 75.9647 52.7735C77.013 52.9649 78.082 52.7547 79.1116 52.5342C81.0587 52.064 82.9684 50.9842 84.0167 49.222C85.0649 47.5368 85.1687 45.2336 84.0644 43.5504C82.4785 41.1391 79.5081 40.0905 76.7494 39.8658C74.3041 39.8159 71.8568 39.8845 69.4115 39.8304C69.4136 37.3921 69.4697 34.9558 69.48 32.5153C70.7608 32.5527 72.0374 32.4341 73.3181 32.4633C75.205 32.4404 77.1272 32.5985 78.9725 32.1033C80.9923 31.6061 83.0161 30.5117 84.0478 28.6309C85.0815 26.7959 84.8013 24.4366 83.6721 22.7118C81.9367 20.0237 78.5242 18.7609 75.423 19.0958C72.7826 19.5369 70.1713 20.1319 67.562 20.7145C67.0597 18.3094 66.5262 15.9105 66.0301 13.5033C68.3301 13.0311 70.63 12.5671 72.9507 12.2134ZM116.496 12.9416C118.987 13.4409 121.472 13.986 123.946 14.5602C126.78 19.179 129.607 23.802 132.579 28.3334C134.784 25.9013 136.947 23.4317 139.149 20.9974C142.707 22.9365 146.007 25.5954 148.079 29.1365C149.518 31.5666 150.132 34.4523 149.819 37.261C149.623 40.1342 148.336 42.8493 146.423 44.9735C143.961 47.7282 140.899 49.8628 137.798 51.8289C136.561 49.7151 135.263 47.6366 134.005 45.5332C136.612 43.9062 139.199 42.0878 141.032 39.5766C141.966 38.2513 142.746 36.6306 142.493 34.9682C142.047 33.3849 140.82 32.2011 139.844 30.9299C136.982 34.2525 134.122 37.5814 131.238 40.8874C128.814 37.03 126.404 33.1644 123.869 29.3799C123.863 38.5821 123.863 47.7864 123.867 56.9907C121.407 57.6003 118.956 58.2494 116.496 58.859C116.496 43.5525 116.496 28.246 116.496 12.9416ZM56.7286 16.7323C59.1925 15.9417 61.6295 15.0637 64.0851 14.2523C64.0768 26.076 64.0913 37.8997 64.0768 49.7255C64.083 51.3317 63.3793 52.89 62.2522 54.0176C60.7992 55.4241 58.6819 55.9525 56.7037 55.8069C56.1079 55.7507 55.479 55.732 54.9372 55.4428C50.9164 53.2957 46.8853 51.1673 42.8604 49.0264C44.1556 47.0478 45.4572 45.0734 46.767 43.1052C49.6959 44.7759 52.6642 46.3779 55.6699 47.9092C56.054 48.1984 56.768 48.0361 56.712 47.4702C56.7203 44.9465 56.712 42.4228 56.7141 39.9012C52.9735 39.9386 49.2392 39.8325 45.5007 39.8492C43.2465 39.766 41.1313 38.5114 39.7758 36.7367C38.7109 35.3344 37.8889 33.6325 37.9885 31.8287C38.1089 29.8293 38.8209 27.7945 40.2013 26.3215C42.4805 24.5718 44.7742 22.8449 47.0617 21.1077C48.3321 23.1487 49.6025 25.1897 50.8728 27.2328C49.1894 28.529 47.4873 29.8043 45.8495 31.1588C45.536 31.3606 45.6211 31.7392 45.5983 32.0534C45.8599 32.2823 46.1546 32.5257 46.5324 32.4695C49.9263 32.5423 53.3202 32.5153 56.7141 32.5673C56.7244 27.289 56.6933 22.0107 56.7286 16.7323Z" fill="#909090"/>
<path d="M0 81.1473C3.38544 81.1494 6.76903 81.1411 10.1547 81.1535C11.1406 83.3298 12.1619 85.4914 13.1499 87.6657C13.9491 85.4894 14.7732 83.3215 15.5786 81.1473C18.5615 81.1556 21.5444 81.1307 24.5273 81.1598C21.4531 88.3335 18.3767 95.5093 15.2901 102.679C12.2698 102.685 9.24957 102.679 6.22933 102.681C7.16554 100.686 8.16596 98.7216 9.13331 96.743C6.09862 91.5396 3.02227 86.3591 0 81.1473ZM26.1485 81.1473C29.6939 81.1452 33.2372 81.1494 36.7806 81.1452C39.1573 81.087 41.7354 81.4531 43.5912 83.0656C45.9804 85.1024 46.5159 88.7413 45.3846 91.5771C44.6789 93.4079 43.093 94.8164 41.2497 95.4365C39.1885 96.1855 36.9653 96.0065 34.8148 96.0232C34.8127 98.2431 34.819 100.461 34.8127 102.681C31.9253 102.679 29.038 102.683 26.1506 102.681C26.1485 95.503 26.1485 88.3252 26.1485 81.1473ZM34.8148 86.7585C34.8148 87.9756 34.8148 89.1927 34.8148 90.4098C35.6327 90.3973 36.5647 90.4827 37.2414 89.9251C37.8704 89.3134 37.8932 88.2461 37.4843 87.5075C36.8927 86.6379 35.724 86.7939 34.8148 86.7585ZM54.1734 81.1452C57.3431 81.1639 60.5128 81.1161 63.6825 81.1702C66.0718 88.0631 68.5565 94.9246 70.983 101.807C70.9851 100.074 70.9872 98.3408 70.983 96.6078C72.1019 96.9095 73.4864 97.0073 74.4039 96.1625C75.201 95.3324 75.2508 94.0987 75.2923 93.0126C75.2902 89.0596 75.2965 85.1066 75.2903 81.1535C81.8808 81.1411 88.4735 81.1494 95.064 81.1494C95.0474 88.3314 95.0931 95.5155 95.0412 102.7C92.1849 102.666 89.3266 102.673 86.4703 102.695C86.4226 97.6106 86.4641 92.5258 86.4475 87.4409C85.3245 87.4409 84.2015 87.4409 83.0785 87.4388C83.064 90.4057 83.0972 93.3726 83.0619 96.3373C83.0329 98.1661 82.4994 100.151 80.9779 101.301C78.9914 102.818 76.3593 103.039 73.9452 102.995C72.8305 103.039 71.7448 102.743 70.6405 102.681C67.9067 102.681 65.1729 102.681 62.4392 102.681C62.1444 101.643 61.8704 100.596 61.5736 99.5579C59.7946 99.5601 58.0157 99.5601 56.2388 99.5601C55.9545 100.596 55.6639 101.632 55.3898 102.673C52.4381 102.693 49.4864 102.67 46.5346 102.685C49.0588 95.4968 51.6244 88.3252 54.1734 81.1452ZM58.9041 88.8161C58.4225 90.5971 57.9285 92.3738 57.4407 94.1548C58.4184 94.1465 59.394 94.1548 60.3717 94.1465C59.8839 92.3677 59.4044 90.5888 58.9041 88.8161ZM100.378 81.1473C103.539 81.1473 106.701 81.1452 109.862 81.1473C110.971 85.1898 112.065 89.2364 113.177 93.2768C114.294 89.2386 115.388 85.1918 116.488 81.1473C119.652 81.1473 122.815 81.1452 125.978 81.1494C126.962 88.3273 128 95.4989 128.97 102.679C126.18 102.683 123.39 102.681 120.6 102.681C120.268 99.015 119.948 95.3491 119.635 91.6811C118.533 95.3366 117.491 99.0108 116.426 102.679C114.261 102.685 112.098 102.679 109.933 102.681C108.864 99.0295 107.836 95.3657 106.73 91.7268C106.392 95.3761 106.091 99.0295 105.758 102.679C102.964 102.681 100.173 102.683 97.3806 102.679C98.3624 95.4989 99.3899 88.3252 100.378 81.1473ZM134.024 88.8703C134.962 86.307 135.807 83.6939 136.806 81.1577C139.936 81.1411 143.072 81.1348 146.205 81.1619C146.755 82.3665 147.112 83.6939 147.596 84.9422C149.692 90.8551 151.799 96.7638 153.887 102.679C150.933 102.681 147.98 102.683 145.026 102.679C144.754 101.634 144.461 100.598 144.179 99.5579C142.398 99.5601 140.619 99.5622 138.84 99.5579C138.551 100.59 138.259 101.62 138.001 102.66C135.045 102.708 132.087 102.67 129.132 102.679C130.742 98.0683 132.399 93.4745 134.024 88.8703ZM140.038 94.1486C141.017 94.1507 141.997 94.1507 142.979 94.1486C142.485 92.3698 141.987 90.593 141.516 88.8078C141.013 90.5846 140.536 92.3698 140.038 94.1486ZM155.521 81.1473C158.255 81.1515 160.988 81.139 163.724 81.1535C163.716 86.2321 163.72 91.3086 163.722 96.3873C164.845 96.3873 165.968 96.3894 167.093 96.3851C167.093 91.3066 167.093 86.228 167.093 81.1473C169.827 81.1473 172.559 81.1473 175.293 81.1473C175.293 86.228 175.293 91.3066 175.293 96.3851C176.434 96.3873 177.576 96.3894 178.718 96.3851C178.718 91.3066 178.718 86.228 178.718 81.1473C181.433 81.1473 184.15 81.1473 186.865 81.1473C186.861 88.3273 186.875 95.5051 186.857 102.685C176.413 102.677 165.97 102.681 155.525 102.683C155.515 95.5051 155.523 88.3273 155.521 81.1473Z" fill="#909090"/>
</svg>
