<svg width="42" height="21" viewBox="0 0 42 21" fill="none" xmlns="http://www.w3.org/2000/svg">
<path d="M41.2084 9.76812C41.2079 9.76764 41.2075 9.76708 41.207 9.7666L32.8055 1.4057C32.1761 0.779361 31.1581 0.781692 30.5316 1.41117C29.9052 2.04057 29.9076 3.05859 30.537 3.68501L36.1777 9.29839H2.12654C1.23852 9.29839 0.518677 10.0182 0.518677 10.9062C0.518677 11.7943 1.23852 12.5141 2.12654 12.5141H36.1776L30.5371 18.1275C29.9077 18.7539 29.9053 19.7719 30.5317 20.4013C31.1582 21.0309 32.1763 21.0331 32.8056 20.4068L41.207 12.0459C41.2075 12.0454 41.2079 12.0449 41.2085 12.0444C41.8382 11.4159 41.8362 10.3945 41.2084 9.76812Z" fill="#111111"/>
</svg>
